<?xml version="1.0" encoding="UTF-8"?>
<svg width="136px" height="136px" viewBox="0 0 136 136" version="1.1" xmlns="http://www.w3.org/2000/svg" xmlns:xlink="http://www.w3.org/1999/xlink">
    <title>pet/cat</title>
    <g id="pet/cat" stroke="none" stroke-width="1" fill="none" fill-rule="evenodd">
        <rect id="Rectangle" x="0" y="18" width="118" height="118" rx="59"></rect>
        <g id="gato" transform="translate(12.000000, 22.000000)" fill-rule="nonzero">
            <g id="Group" transform="translate(3.385593, 0.000000)" fill="#DF5C30">
                <path d="M0.153347458,46.8040339 L0.153347458,2.36394068 C0.153347458,1.05829661 1.21184322,0 2.51748729,0 L2.51748729,0 C3.14461864,0 3.74566102,0.249139831 4.18897458,0.69245339 L24.3912076,20.8946864 L0.153347458,46.8040339 Z" id="Path"></path>
                <path d="M87.0752669,46.8040339 L87.0752669,2.36394068 C87.0752669,1.05829661 86.0167712,0 84.7113263,0 L84.7113263,0 C84.0841949,0 83.4831525,0.249139831 83.039839,0.69245339 L62.8376059,20.8946864 L87.0752669,46.8040339 Z" id="Path"></path>
            </g>
            <path d="M93.8040339,55.1620678 C93.8040339,81.0112712 72.8492034,101.966102 47,101.966102 C21.1507966,101.966102 0.195966102,81.011072 0.195966102,55.1620678 C0.195966102,29.3130636 17.4581102,11.7010085 47,11.7010085 C76.5418898,11.7010085 93.8040339,29.3126653 93.8040339,55.1620678 Z" id="Path" fill-opacity="0.83" fill="#EC6F3B"></path>
            <path d="M57.5779873,68.7729492 C53.1972288,67.8331483 49.1693686,69.7579576 47,73.0244576 C44.8306314,69.7579576 40.8027712,67.8331483 36.4220127,68.7729492 C32.6612161,69.5797161 29.6299153,72.6277458 28.8406737,76.3921271 C27.4802627,82.8797203 32.3937542,88.5934068 38.6421653,88.5934068 C41.4344831,88.5934068 43.9583432,87.4510678 45.7760085,85.6093051 C46.4634831,84.9126695 47.5363178,84.9126695 48.2237924,85.6093051 C50.0414576,87.4508686 52.5655169,88.5934068 55.3578347,88.5934068 C61.6060466,88.5934068 66.5197373,82.8797203 65.1593263,76.3923263 C64.3696864,72.6279449 61.3385847,69.5797161 57.5779873,68.7729492 Z" id="Path" fill="#FFFFFF"></path>
            <g id="Group" transform="translate(10.156780, 11.550847)" fill="#DF5C30">
                <path d="M30.1232161,59.2769576 L34.8027034,65.8282797 C35.8026483,67.228322 37.8833941,67.228322 38.883339,65.8282797 L43.5628263,59.2769576 C44.7481822,57.6174195 43.5620297,55.3122288 41.5225085,55.3122288 L32.1633347,55.3122288 C30.1242119,55.3122288 28.9378602,57.6172203 30.1232161,59.2769576 Z" id="Path"></path>
                <path d="M46.8727415,0.892800847 L46.8727415,15.1943432 C46.8727415,17.0406864 48.369572,18.5375169 50.2159153,18.5375169 C52.0622585,18.5375169 53.559089,17.0406864 53.559089,15.1943432 L53.559089,2.3424322 C51.4303475,1.73760593 49.2028263,1.2496822 46.8727415,0.892800847 Z" id="Path"></path>
                <path d="M36.8432203,0.150161017 C35.7084492,0.150161017 34.5983729,0.185012712 33.5000466,0.236394068 L33.5000466,23.552178 C33.5000466,25.3985212 34.9968771,26.8953517 36.8432203,26.8953517 C38.6895636,26.8953517 40.1863941,25.3985212 40.1863941,23.552178 L40.1863941,0.236394068 C39.0880678,0.185012712 37.9777924,0.150161017 36.8432203,0.150161017 Z" id="Path"></path>
                <path d="M20.1275508,2.3424322 L20.1275508,15.1943432 C20.1275508,17.0406864 21.6243814,18.5375169 23.4707246,18.5375169 C25.3170678,18.5375169 26.8138983,17.0406864 26.8138983,15.1943432 L26.8138983,0.892800847 C24.4834153,1.2496822 22.2558941,1.73760593 20.1275508,2.3424322 Z" id="Path"></path>
                <circle id="Oval" cx="6.75485593" cy="58.6554025" r="6.68634746"></circle>
                <circle id="Oval" cx="66.9315847" cy="58.6554025" r="6.68634746"></circle>
            </g>
            <g id="Group" transform="translate(21.906780, 46.800847)" fill="#000000">
                <circle id="Oval" cx="43.4805763" cy="6.6895339" r="6.68634746"></circle>
                <circle id="Oval" cx="6.70586441" cy="6.6895339" r="6.68634746"></circle>
            </g>
        </g>
    </g>
</svg>