<?xml version="1.0" encoding="UTF-8"?>
<svg width="48px" height="48px" viewBox="0 0 48 48" version="1.1" xmlns="http://www.w3.org/2000/svg" xmlns:xlink="http://www.w3.org/1999/xlink">
    <title>task/done</title>
    <defs>
        <path d="M24,17 C18.48,17 14,21.48 14,27 C14,32.52 18.48,37 24,37 C29.52,37 34,32.52 34,27 C34,21.48 29.52,17 24,17 Z M22,32 L17,27 L18.41,25.59 L22,29.17 L29.59,21.58 L31,23 L22,32 Z" id="path-1"></path>
    </defs>
    <g id="task/done" stroke="none" stroke-width="1" fill="none" fill-rule="evenodd">
        <g id="tarea" transform="translate(2.000000, -1.000000)">
            <rect id="Rectangle" fill="#5BBEFF" x="0" y="5" width="44" height="43" rx="1"></rect>
            <rect id="Rectangle" fill="#FFFFFF" x="4" y="9" width="36" height="35" rx="1"></rect>
            <g id="Group-12" transform="translate(11.000000, 0.000000)" fill-rule="nonzero">
                <path d="M20.6447754,6.20727544 L17.321045,6.15563963 C17.2847901,4.51977544 16.6292725,2.98864744 15.4654541,1.83142088 C14.2767335,0.64965825 12.7023926,0 11.0284424,0 C11.0163575,0 11.0042725,0 10.9921875,0 C7.57067878,0.0190429688 4.78161628,2.79528806 4.73291016,6.20727544 L1.41613772,6.20727544 C0.635009812,6.20727544 0,6.84265134 0,7.62377925 L0,11.758667 C0,12.5397949 0.635009812,13.1751709 1.41613772,13.1751709 L20.6385498,13.1751709 C21.4193116,13.1751709 22.0546875,12.5397949 22.0546875,11.758667 L22.0546875,7.62377925 C22.0546875,6.84484866 21.4229737,6.21057131 20.6447754,6.20727544 Z" id="Path" fill="#BDBDBD"></path>
                <path d="M12.7960205,6.3985595 C12.7960205,5.62622066 12.170166,5 11.3981933,5 C10.6258545,5 10,5.62622066 10,6.3985595 C10,7.17126462 10.6258545,7.79748537 11.3981933,7.79748537 C12.170166,7.79748537 12.7960205,7.17126462 12.7960205,6.3985595 Z" id="Path" fill="#1E284B"></path>
            </g>
        </g>
        <mask id="mask-2" fill="white">
            <use xlink:href="#path-1"></use>
        </mask>
        <use id="-↳Color" fill="#66BB6A" xlink:href="#path-1"></use>
    </g>
</svg>