<?xml version="1.0" encoding="UTF-8"?>
<svg width="296px" height="315px" viewBox="0 0 296 315" version="1.1" xmlns="http://www.w3.org/2000/svg" xmlns:xlink="http://www.w3.org/1999/xlink">
    <title>avatar/marine</title>
    <defs>
        <rect id="path-1" x="0" y="0" width="296" height="296" rx="148"></rect>
    </defs>
    <g id="avatar/marine" stroke="none" stroke-width="1" fill="none" fill-rule="evenodd">
        <g id="Fill-6-+-Fill-20-+-Fill-21-+-Fill-22-+-Fill-24-+-Fill-38-+-Fill-39-Mask" transform="translate(0.000000, 19.000000)">
            <g id="Fill-40-+-Fill-41-+-Fill-43-+-Fill-45-+-Fill-46-+-Fill-55-+-Fill-56-Mask">
                <mask id="mask-2" fill="white">
                    <use xlink:href="#path-1"></use>
                </mask>
                <g id="Mask"></g>
                <path d="M89.725991,287.049703 C90.1520631,278.016157 90.5752563,268.982611 90.9984496,259.949064 C91.0589057,258.682004 89.3315864,258.685287 89.274009,259.949064 C88.8479369,268.982611 88.4247437,278.016157 88.0015504,287.049703 C87.9410943,288.320046 89.6684136,288.313481 89.725991,287.049703" id="Fill-40" fill="#000000" mask="url(#mask-2)"></path>
                <path d="M204.844052,287.050536 C204.547052,278.015069 204.250052,268.98288 203.953052,259.950692 C203.914052,258.684743 202.111052,258.681463 202.156052,259.950692 C202.450052,268.98288 202.747052,278.015069 203.044052,287.050536 C203.086052,288.313206 204.886052,288.319765 204.844052,287.050536" id="Fill-41" fill="#000000" mask="url(#mask-2)"></path>
                <path d="M148.138546,255.27909 C112.841977,255.206991 87.6986749,244.175816 74.4501394,235.995836 C73.2968071,243.153319 72.0810437,250.920367 71,257.927097 C83.2956398,266.175899 109.549558,278.921068 147.497806,279 C182.705657,279.071821 208.841285,265.133738 223,255.187328 L219.891589,234 C205.105277,243.618686 180.435137,255.344635 148.138546,255.27909" id="Fill-43" fill="#3793B5" mask="url(#mask-2)"></path>
                <path d="M71.4001034,256.779304 C69.4916796,269.239627 68,279.292994 68,279.292994 C68,279.292994 151.295917,317.242459 228,278.751097 L224.401447,254 C210.149457,264.089937 183.841654,278.229146 148.40186,278.156006 C110.203618,278.076218 83.7767442,265.147136 71.4001034,256.779304" id="Fill-45" fill="#FAD8B4" mask="url(#mask-2)"></path>
                <path d="M220,233.744595 L218.759777,225.305394 C218.759777,225.305394 215.890111,217.825343 207.383368,211 C194.578723,221.99584 175.088087,232.864011 147.971398,232.808361 C117.203308,232.746164 97.3399453,221.714315 85.9173576,211.82166 C80.6266182,215.432381 76.5925943,220.152834 75.5535775,226.31692 C75.062106,229.230376 74.53765,232.418809 74,235.738184 C87.2994149,243.908954 112.539277,254.927709 147.971398,255 C180.39202,255.065198 205.156903,243.352451 220,233.744595" id="Fill-46" fill="#FAD8B4" mask="url(#mask-2)"></path>
                <path d="M89.725991,287.049703 C90.1520631,278.016157 90.5752563,268.982611 90.9984496,259.949064 C91.0589057,258.682004 89.3315864,258.685287 89.274009,259.949064 C88.8479369,268.982611 88.4247437,278.016157 88.0015504,287.049703 C87.9410943,288.320046 89.6684136,288.313481 89.725991,287.049703" id="Fill-55" fill="#000000" mask="url(#mask-2)"></path>
                <path d="M204.844052,287.050536 C204.547052,278.015069 204.250052,268.98288 203.953052,259.950692 C203.914052,258.684743 202.111052,258.681463 202.156052,259.950692 C202.450052,268.98288 202.747052,278.015069 203.044052,287.050536 C203.086052,288.313206 204.886052,288.319765 204.844052,287.050536" id="Fill-56" fill="#000000" mask="url(#mask-2)"></path>
            </g>
        </g>
        <g id="Group-4" transform="translate(52.274802, 0.000000)">
            <path d="M96.8572609,234 C114.910275,234 125.287126,227.480117 131.725198,218.900795 C129.070731,218.458769 126.304011,218.113855 123.269863,218 L70.4446583,218.458769 C70.4446583,218.458769 66.8822585,218.750105 61.7251978,219.70113 C66.5421962,226.053579 76.5789852,234 96.8572609,234" id="Fill-42" fill="#2C2945"></path>
            <path d="M154.725198,229.094466 C149.362754,224.757463 141.69367,220.736117 131.123215,219 C124.715884,227.424111 114.388579,233.826042 96.4217627,233.826042 C76.2403099,233.826042 66.2514436,226.023381 61.457445,219.785856 C53.6273567,221.209603 42.0941591,224.152452 33.7251978,229.919779 C45.1039623,239.856416 64.8911177,250.937312 95.5411653,251 C122.55382,251.055684 141.969678,240.139193 154.725198,229.094466" id="Fill-44" fill="#3793B5"></path>
            <path d="M39.7251978,116.434631 C39.764067,127.758096 31.0638752,136.963927 20.2934474,137 C9.5262695,137.03909 0.764328182,127.888815 0.725197838,116.565349 C0.686328705,105.248419 9.38652043,96.039321 20.1569483,96 C30.9241262,95.964158 39.6860675,105.114433 39.7251978,116.434631" id="Fill-47" fill="#F9B28F"></path>
            <path d="M188.725198,115.434641 C188.760838,126.754844 180.060641,135.963947 169.293458,136 C158.523024,136.035842 149.761078,126.88883 149.725198,115.568627 C149.686329,104.245156 158.386525,95.0360531 169.156959,95 C179.924142,94.964158 188.686088,104.114438 188.725198,115.434641" id="Fill-48" fill="#F9B28F"></path>
            <path d="M69.7251978,218.711818 C69.7251978,218.711818 76.6549478,227.061245 95.4268853,226.999661 C114.198823,226.938077 122.725198,218.267769 122.725198,218.267769 C122.725198,218.267769 116.03726,212.128866 111.69126,202 C100.872635,206.745171 88.7521978,209.409468 76.5754478,209.989649 C74.8529478,213.260057 72.6203228,216.335991 69.7251978,218.711818" id="Fill-49" fill="#FCCEB6"></path>
            <path d="M82.4171137,188.54618 C82.4171137,188.54618 81.8591475,200.16876 76.7251978,210 C88.8617887,209.418058 100.942253,206.745678 111.725198,201.986109 C109.988569,197.915768 108.618415,193.224472 108.215623,188 C108.215623,188 93.3816453,191.452638 82.4171137,188.54618" id="Fill-50" fill="#F9B28F"></path>
            <path d="M6.14265059,117.027509 C6.18496549,117.03444 6.23053538,117.041371 6.27285028,117.048302 C6.56579958,117.096818 6.77737408,117.013647 6.94988867,116.757201 C8.60016973,114.314036 10.3448456,112.816948 13.121354,112.006025 C17.3430789,110.768847 19.8754628,114.154624 21.8349682,117.495349 C22.339492,118.358254 23.7912185,118.074084 23.7228637,116.951268 C23.4461893,112.304056 18.9998699,109.309879 14.9701895,109.015313 C12.678675,108.84897 10.2309208,110.061889 8.45695007,111.482737 C7.9849762,111.860474 5.67067672,115.915089 6.14265059,115.838848 C5.58604692,115.928951 5.58604692,116.940872 6.14265059,117.027509" id="Fill-51" fill="#000000"></path>
            <path d="M13.5061518,121.943366 C14.8395205,121.286231 16.1315198,120.357898 17.3630561,119.488671 C18.9064542,118.403877 20.758532,118.734183 22.5151419,118.73766 C24.1285498,118.741137 24.1285498,115.987428 22.5151419,116.001336 C20.6598818,116.015243 18.8587203,115.876167 17.1275685,116.682809 C16.121973,117.152191 15.157747,118.056186 14.3144469,118.810675 C13.5697971,119.481717 13.4997873,120.375282 12.882428,121.060232 C12.4496401,121.543522 12.9938073,122.19718 13.5061518,121.943366" id="Fill-52" fill="#000000"></path>
            <path d="M182.30884,115.727833 C182.784203,115.800153 180.439948,111.791576 179.971097,111.419647 C177.998016,109.876827 175.868651,109.174293 173.439743,109.012435 C169.431718,108.747263 164.948331,112.76617 164.726929,116.953823 C164.668323,118.062725 166.113946,118.365779 166.618612,117.494499 C168.295406,114.605156 169.95592,112.070524 173.439743,111.750251 C176.842168,111.440309 179.648762,113.954279 181.498119,116.643882 C181.673938,116.895279 181.885572,116.984818 182.175348,116.936604 C182.220931,116.929717 182.263258,116.919386 182.30884,116.912498 C182.859089,116.816072 182.868857,115.810484 182.30884,115.727833" id="Fill-53" fill="#000000"></path>
            <path d="M175.566163,121.056355 C175.071084,120.510391 174.972702,119.684445 174.458582,119.103484 C173.706442,118.260039 172.675027,117.605582 171.78325,116.968624 C170.050473,115.736705 167.895609,116.030685 165.934334,116.030685 C164.322153,116.027186 164.322153,118.795504 165.934334,118.785005 C167.454481,118.774505 169.209473,118.435027 170.602676,119.194478 C172.097435,120.006424 173.42082,121.199846 174.94414,121.945297 C175.451914,122.193781 176.004117,121.542823 175.566163,121.056355" id="Fill-54" fill="#000000"></path>
            <path d="M49.3254014,124.871594 C61.0974221,141.000321 69.5815542,147.285179 81.6261971,142.364883 C93.6675554,137.444588 97.7831642,136.739346 103.797274,136.329321 C111.187633,135.827451 116.019286,141.820371 123.409645,143.460469 C130.800004,145.100567 136.643314,128.722545 146.497126,118.596577 C155.526502,109.316901 159.215113,106.97156 165.725198,107.880174 C165.2128,65.3983459 151.880592,20.7712685 94.4197297,21 C43.9320816,21.2009743 24.5233566,64.9391183 23.7251978,107.010922 C30.3699517,109.179132 41.5211823,114.174872 49.3254014,124.871594" id="Fill-57" fill="#FCCEB6"></path>
            <path d="M163.058693,132.151916 C164.805364,125.339922 165.750931,118.160597 165.725198,110.728734 C165.725198,110.112145 165.708249,109.488996 165.701682,108.869128 C159.194348,107.960643 155.507296,110.305649 146.481734,119.583999 C136.632085,129.708519 130.791243,146.084201 123.404006,144.444337 C116.01677,142.804473 111.187158,136.81241 103.799922,137.314208 C97.7883526,137.724174 93.6744825,138.429316 81.6382114,143.348908 C69.5986571,148.268499 61.1181093,141.984541 49.351062,125.858119 C41.55014,115.162926 30.4036205,110.1679 23.7616739,108 C23.7419746,109.069191 23.7222753,110.141662 23.7251978,111.207574 C23.8339046,142.7192 40.98871,169.780235 65.5668675,181.964424 C104.170925,182.98114 139.518032,162.105672 163.058693,132.151916" id="Fill-58" fill="#FEB01B"></path>
            <path d="M64.7251978,183.067092 C73.7483001,187.540429 83.7582011,190.035872 94.2994553,190 C126.910016,189.890826 154.306056,165.79678 162.725198,133 C139.061832,163.106844 103.530478,184.089004 64.7251978,183.067092" id="Fill-59" fill="#F79C0B"></path>
            <path d="M68.7251978,111.5 C68.7251978,114.53982 66.711357,117 64.2269279,117 C61.7390387,117 59.7251978,114.53982 59.7251978,111.5 C59.7251978,108.463473 61.7390387,106 64.2269279,106 C66.711357,106 68.7251978,108.463473 68.7251978,111.5" id="Fill-60" fill="#000000"></path>
            <path d="M135.725198,111.5 C135.725198,114.53982 133.710582,117 131.225198,117 C128.739813,117 126.725198,114.53982 126.725198,111.5 C126.725198,108.463473 128.739813,106 131.225198,106 C133.710582,106 135.725198,108.463473 135.725198,111.5" id="Fill-61" fill="#000000"></path>
            <path d="M40.2251978,59.9235 C40.4141978,58.6875 40.5491978,57.7335 40.6331978,57.1155 C40.3631978,57.1005 40.0871978,57.0945 39.8171978,57.0765 C39.8801978,57.6945 40.0001978,58.7325 40.2251978,59.9235" id="Fill-62" fill="#FEB01B"></path>
            <path d="M40.1861978,57.7944527 C40.2131978,57.7974527 40.2401978,57.7974527 40.2641978,57.8004527 C40.1891978,57.0834527 40.1861978,56.9214527 40.1861978,57.7944527" id="Fill-63" fill="#FEB01B"></path>
            <path d="M171.032998,28.5245973 C182.608912,14.3399685 156.141636,-1.75645879 105.353348,0.155339779 C54.5683728,2.06386472 29.1742289,21.1622086 29.1742289,21.1622086 C29.1742289,21.1622086 28.346195,4.24737438 22.4042236,6.70259514 C16.4589402,9.1578159 21.5662533,29.3430042 21.5662533,29.3430042 C21.5662533,29.3430042 12.0637362,15.1583754 8.33427146,21.1622086 C4.60480673,27.1660418 19.2212613,38.0737692 19.2212613,38.0737692 C2.36580304,53.6235007 10.1095762,97.4802907 10.1095762,97.4802907 C15.6077213,97.1463807 22.4042236,107 22.4042236,107 C32.0226655,104.528411 37.8818335,71.7364826 39.6472017,60.2820594 C39.3987916,58.9824292 39.2663062,57.849754 39.1967513,57.1753867 C39.1702542,57.1721131 39.140445,57.1721131 39.1106358,57.1688395 C39.1106358,56.2162138 39.1139479,56.3929897 39.1967513,57.1753867 C39.4948435,57.1950285 39.79956,57.2015757 40.0976522,57.2179439 C40.1738313,56.6745217 40.2168891,56.3504325 40.2168891,56.3504325 C40.703773,56.6843426 41.2568997,56.9920636 41.8067142,57.3030582 C86.5271695,59.863035 133.824466,50.4218928 171.145611,28.632627 C171.072744,28.5606072 171.032998,28.5245973 171.032998,28.5245973" id="Fill-64" fill="#FEB01B"></path>
            <path d="M42.7251978,57.946898 C66.2878251,71.4618404 145.570258,63.3343659 145.889428,64.9737426 C148.196005,76.7038797 160.166518,109.213778 165.700988,108.99894 C167.412001,100.137712 175.302404,96.468946 175.302404,96.468946 C177.566207,77.8375616 170.001554,51.200995 170.001554,51.200995 C180.540737,38.8990591 172.29497,30.0642728 171.215715,29 C134.139373,50.9993781 87.152316,60.5315605 42.7251978,57.946898" id="Fill-65" fill="#F79C0B"></path>
            <path d="M93.910261,145.472327 C93.1009903,147.934094 95.0971913,151.747486 96.9652577,153.307053 C98.752397,154.802895 103.15955,155.641372 105.202958,154.397073 C105.89421,153.97448 105.904326,152.964954 105.202958,152.54907 C103.415819,151.482528 100.977891,152.41156 99.012038,151.499297 C96.8775867,150.506541 96.2099384,147.213004 95.1106791,145.318047 C94.8173185,144.808253 94.085603,144.949117 93.910261,145.472327" id="Fill-66" fill="#000000"></path>
            <path d="M105.592308,130.882156 C110.184093,127.734992 118.047809,117.564198 110.7544,113.257379 C106.612343,110.80995 97.1582848,125.001755 96.0274479,111.851339 C95.6168269,107.07146 95.8742797,102.206168 95.8710208,97.4131484 C95.8710208,92.8829402 95.1279925,83.3724596 97.4548444,79.6076891 C98.0088567,78.7108458 96.9040909,77.5873279 96.0111534,78.152372 C93.4333665,79.7916569 93.7983629,87.7219851 93.5995702,90.1858402 C93.00971,97.5938311 91.8071773,108.323099 93.9417543,115.51427 C94.7401839,118.208085 95.4212932,121.4768 98.817063,121.4768 C100.472582,121.4768 102.450732,119.745531 103.594605,118.924246 C106.175651,115.839499 108.45036,116.782334 110.421992,121.756037 C109.157541,124.939337 107.264122,127.606871 104.73196,129.758638 C104.158394,130.317112 104.917717,131.348646 105.592308,130.882156" id="Fill-67" fill="#000000"></path>
            <path d="M38.9577494,95.7845638 C38.9577494,95.7845638 53.5116466,77.2781916 64.3937337,74.5722397 C69.7859932,72.574448 70.4982398,76.3296466 69.7859932,77.8531657 C69.7859932,77.8531657 72.5374115,81.1016074 68.6216814,83.7393421 C68.6216814,83.7393421 67.6525057,86.7863803 62.5692116,87.6991925 C57.4891697,88.6120046 36.2811333,100.826145 38.9577494,95.7845638" id="Fill-68" fill="#FEB01B"></path>
            <path d="M151.4926,95.7845638 C151.4926,95.7845638 136.937793,77.2781916 126.058278,74.5722397 C120.662428,72.574448 119.95339,76.3296466 120.662428,77.8531657 C120.662428,77.8531657 117.914091,81.1016074 121.830066,83.7393421 C121.830066,83.7393421 122.799302,86.7863803 127.879661,87.6991925 C132.963273,88.6120046 154.169383,100.826145 151.4926,95.7845638" id="Fill-69" fill="#FEB01B"></path>
        </g>
    </g>
</svg>