<?xml version="1.0" encoding="UTF-8"?>
<svg width="296px" height="315px" viewBox="0 0 296 315" version="1.1" xmlns="http://www.w3.org/2000/svg" xmlns:xlink="http://www.w3.org/1999/xlink">
    <title>avatar/redHead</title>
    <defs>
        <rect id="path-1" x="0" y="0" width="296" height="296" rx="148"></rect>
    </defs>
    <g id="avatar/redHead" stroke="none" stroke-width="1" fill="none" fill-rule="evenodd">
        <g id="Fill-6-+-Fill-20-+-Fill-21-+-Fill-22-+-Fill-24-+-Fill-38-+-Fill-39-Mask" transform="translate(0.000000, 19.000000)">
            <mask id="mask-2" fill="white">
                <use xlink:href="#path-1"></use>
            </mask>
            <g id="Mask"></g>
            <path d="M123.427881,203.67093 C123.427881,203.67093 81.5150675,206.858496 77.7764561,228.639134 C74.4094632,248.268164 69.4342588,280.701647 69.4342588,280.701647 C69.4342588,280.701647 149.992205,317.358655 224.412037,280.701647 L216.870742,228.11956 C216.870742,228.11956 208.057614,204.73239 174.685621,203.403175 L123.427881,203.67093" id="Fill-6" fill="#FFF6E5" mask="url(#mask-2)"></path>
            <path d="M147.151086,211.379313 C147.401667,239.941642 147.652248,268.503971 147.905848,297.069509 C147.914905,298.308558 149.726333,298.311768 149.714257,297.069509 C149.463676,268.503971 149.213095,239.941642 148.959495,211.379313 C148.950438,210.137054 147.13901,210.137054 147.151086,211.379313" id="Fill-20" fill="#000000" mask="url(#mask-2)"></path>
            <path d="M92.3045418,288.019465 C92.7333191,279.24167 93.1591993,270.463875 93.5850795,261.68608 C93.6459195,260.454892 91.907633,260.461271 91.8496902,261.68608 C91.4209128,270.463875 90.9950326,279.24167 90.5691525,288.019465 C90.5083124,289.253842 92.2465989,289.247463 92.3045418,288.019465" id="Fill-21" fill="#000000" mask="url(#mask-2)"></path>
            <path d="M204.128062,288.020313 C203.829176,279.241023 203.530291,270.46492 203.231405,261.688817 C203.192157,260.458761 201.380729,260.455574 201.422995,261.688817 C201.718862,270.46492 202.017748,279.241023 202.316633,288.020313 C202.3589,289.247183 204.170329,289.253556 204.128062,288.020313" id="Fill-22" fill="#000000" mask="url(#mask-2)"></path>
            <path d="M158.999338,284.91746 C158.999338,286.582 157.871479,287.936508 156.481907,287.936508 C155.095451,287.936508 153.967592,286.582 153.967592,284.91746 C153.967592,283.246901 155.095451,281.898413 156.481907,281.898413 C157.871479,281.898413 158.999338,283.246901 158.999338,284.91746" id="Fill-24" fill="#E95F33" mask="url(#mask-2)"></path>
            <path d="M154.698193,297.079 C155.12697,288.301205 155.55285,279.52341 155.97873,270.745615 C156.03957,269.511237 154.301284,269.517616 154.240444,270.745615 C153.814564,279.52341 153.388683,288.301205 152.962803,297.079 C152.901963,298.310188 154.64025,298.303808 154.698193,297.079" id="Fill-38" fill="#000000" mask="url(#mask-2)"></path>
            <path d="M155.8233,297.077456 C155.527433,288.298166 155.228548,279.522063 154.929662,270.74596 C154.887395,269.515903 153.075967,269.512717 153.118233,270.74596 C153.417119,279.522063 153.716005,288.298166 154.014891,297.077456 C154.054138,298.304326 155.865567,298.310699 155.8233,297.077456" id="Fill-39" fill="#000000" mask="url(#mask-2)"></path>
        </g>
        <g id="Group-3" transform="translate(29.000000, 0.000000)">
            <path d="M64.5866398,122.774603 C64.5866398,133.888882 56.0269689,142.901587 45.4660049,142.901587 C34.9082276,142.901587 26.3453699,133.888882 26.3453699,122.774603 C26.3453699,111.657116 34.9082276,102.647619 45.4660049,102.647619 C56.0269689,102.647619 64.5866398,111.657116 64.5866398,122.774603" id="Fill-4" fill="#FFD7C2"></path>
            <path d="M210.507275,122.774603 C210.507275,133.888882 201.947604,142.901587 191.38664,142.901587 C180.828863,142.901587 172.266005,133.888882 172.266005,122.774603 C172.266005,111.657116 180.828863,102.647619 191.38664,102.647619 C201.947604,102.647619 210.507275,111.657116 210.507275,122.774603" id="Fill-5" fill="#F9B28F"></path>
            <path d="M130.150514,188.277544 C129.022146,188.277544 134.676773,211.18119 131.748769,213.644328 C128.817569,216.110677 151.592707,214.877502 160.849802,214.822909 C170.106897,214.771527 183.960574,219.858371 189.02065,211.829892 C194.080726,203.801412 183.426756,188.010998 182.892939,177.037673 C182.362318,166.067558 181.828501,152.965079 181.828501,152.965079 C181.828501,152.965079 140.539173,188.277544 130.150514,188.277544" id="Fill-7" fill="#DF5C30"></path>
            <path d="M94,221.047197 C94,221.047197 100.681718,229.152381 118.85997,229.152381 C137.04143,229.152381 145.32381,220.783614 145.32381,220.783614 C145.32381,220.783614 138.86984,214.821613 134.693365,205 C124.204062,209.559362 112.454117,212.104195 100.662472,212.621948 C98.984825,215.788084 96.8131863,218.756533 94,221.047197" id="Fill-8" fill="#FFD7C2"></path>
            <path d="M106.449591,192.658271 C106.449591,192.658271 105.862609,203.876039 100.815211,213.346032 C112.670952,212.828289 124.484765,210.283503 135.031084,205.724225 C133.350768,201.792515 132.025222,197.258341 131.651102,192.212698 C131.651102,192.212698 117.921535,194.443701 106.449591,192.658271" id="Fill-9" fill="#F9B28F"></path>
            <path d="M187.361243,117.115345 C187.361243,159.143815 156.272961,193.219048 117.921542,193.219048 C79.5733343,193.219048 48.4850525,159.143815 48.4850525,117.115345 C48.4850525,75.0836706 67.3107699,30.2225406 117.921542,30.1904762 C174.915655,30.1552489 187.361243,75.0836706 187.361243,117.115345" id="Fill-10" fill="#FFD7C2"></path>
            <path d="M100.49069,143.844818 C98.5892785,150.524137 88.8590979,153.718457 78.7570428,150.975955 C68.6549876,148.230293 62.0032823,140.590466 63.9046935,133.907988 C65.8061046,127.225509 75.5362851,124.034349 85.641574,126.77685 C95.7436291,129.522512 102.392101,137.162339 100.49069,143.844818" id="Fill-11" fill-opacity="0.4" fill="#F9B28F"></path>
            <path d="M173.13654,135.538785 C174.367478,142.52067 167.093756,149.677103 156.891363,151.522777 C146.685772,153.365219 137.410578,149.198714 136.173246,142.213596 C134.942308,135.228478 142.21603,128.075278 152.421621,126.229604 C162.624014,124.387162 171.899208,128.553667 173.13654,135.538785" id="Fill-12" fill-opacity="0.4" fill="#F9B28F"></path>
            <path d="M31.7972241,122.861964 C31.8430839,122.868144 31.8856679,122.874323 31.9315277,122.880503 C32.2263404,122.920671 32.435985,122.846515 32.6128726,122.617868 C34.2802024,120.442627 36.0425273,119.11709 38.8432481,118.40334 C43.091827,117.315719 45.6272164,120.346843 47.5860832,123.331618 C48.0970919,124.104076 49.554777,123.84144 49.4892631,122.843425 C49.2272073,118.696873 44.7558811,116.021081 40.7005683,115.746086 C38.3977534,115.585415 35.9278779,116.663765 34.1393474,117.924416 C33.6610956,118.261207 31.3353508,121.863949 31.7972241,121.799063 C31.2370799,121.879398 31.2370799,122.781629 31.7972241,122.861964" id="Fill-13" fill="#000000"></path>
            <path d="M38.2015342,127.759564 C39.5449487,127.208545 40.8467814,126.428911 42.0878405,125.702034 C43.642363,124.793438 45.5039517,125.080672 47.2663836,125.086533 C48.8912754,125.092395 48.8912754,122.77401 47.2663836,122.779872 C45.4015963,122.785734 43.5975825,122.662634 41.8543422,123.339684 C40.8403841,123.729501 39.8680079,124.49155 39.0203773,125.127567 C38.2719035,125.69031 38.195137,126.440635 37.5746074,127.018033 C37.1363984,127.422504 37.6865586,127.970593 38.2015342,127.759564" id="Fill-14" fill="#000000"></path>
            <path d="M203.042722,121.798253 C203.504595,121.863166 201.182126,118.258953 200.700599,117.922024 C198.722078,116.527942 196.583048,115.894268 194.139378,115.742804 C190.106995,115.489335 185.589809,119.087366 185.350683,122.843042 C185.285169,123.841465 186.742854,124.104208 187.253863,123.331435 C188.95395,120.7411 190.631107,118.472238 194.139378,118.197131 C197.562481,117.931297 200.373029,120.197068 202.227074,122.617393 C202.403961,122.846133 202.616882,122.92032 202.908419,122.880135 C202.954278,122.873953 202.996862,122.867771 203.042722,122.861589 C203.602866,122.78122 203.602866,121.878622 203.042722,121.798253" id="Fill-15" fill="#000000"></path>
            <path d="M197.265339,127.020367 C196.769555,126.56157 196.673597,125.86899 196.155423,125.383892 C195.400552,124.676701 194.364203,124.127313 193.462196,123.592537 C191.725353,122.560973 189.547103,122.8006 187.573563,122.794755 C185.948671,122.788911 185.948671,125.100431 187.573563,125.094587 C189.105695,125.088742 190.874524,124.814048 192.275513,125.451105 C193.77566,126.134917 195.10628,127.134336 196.638412,127.759703 C197.153388,127.970107 197.703548,127.423641 197.265339,127.020367" id="Fill-16" fill="#000000"></path>
            <path d="M50.453768,141.900421 C43.8995632,143.599086 27.6430959,140.60163 26.3144117,122.514529 C28.0477551,101.113273 49.2620944,102.447253 49.2620944,102.447253 C68.63157,85.505391 67.5960248,47.4117944 67.5960248,47.4117944 L66.7994515,39.7470096 C66.7994515,39.7470096 61.0258885,10.3546712 55.6474258,12.1557037 C50.2721493,13.9535372 58.6361687,39.3471356 58.6361687,39.3471356 C58.6361687,39.3471356 43.3005401,20.9529317 39.7159604,25.3515456 C36.1313807,29.7501596 57.8395954,43.1443391 57.8395954,43.1443391 C20.5982019,38.3458511 8.05376609,69.935897 11.2400592,79.932747 C14.4263522,89.9295969 29.1629577,101.525943 14.0280656,114.321911 C-1.1068265,127.117879 -2.50242287,144.114123 3.47187665,151.910067 C9.44617616,159.709209 20.0023651,163.906287 18.0109319,176.503917 C16.0194988,189.098349 9.8444628,203.295475 16.2170489,209.891797 C18.6832398,212.444592 32.699743,214.520738 40.1811592,214.341594 C44.2723595,214.245625 45.4321702,199.095199 45.4321702,199.095199 C48.8096408,198.80409 46.2000668,213.461872 49.5743512,213.167564 C52.3751028,212.92764 56.7721872,213.24434 61.0163296,213.612224 C68.4945594,191.523185 53.5699627,165.812886 50.453768,141.900421" id="Fill-17" fill="#EC6F3B"></path>
            <path d="M99.3075901,190.934872 C64.0845607,178.163399 52.1282972,141.895238 52.1282972,141.895238 C51.6988662,142.132578 51.124139,142.321809 50.4977509,142.482174 C53.6555218,166.45675 68.7792426,192.233829 61.2012382,214.380243 C65.285676,214.729839 69.2312752,215.124337 71.5011248,215.124337 C90.270166,215.124337 100.276231,215.887675 101.212585,214.659279 C106.478765,207.74113 106.853306,192.788692 106.853306,192.788692 L99.3075901,190.934872" id="Fill-18" fill="#DF5C30"></path>
            <path d="M43.9255744,135.860038 C38.5819626,135.711658 36.1872092,141.296446 34.967541,145.763645 C33.438975,151.357905 35.0567073,158.000298 38.8717532,162.36963 C45.6706872,170.158026 57.0712416,173.463438 65.128058,165.460363 C66.5706421,164.023914 64.3255609,161.798207 62.8893458,163.237813 C57.1540389,168.996238 49.2882933,167.638715 43.3396241,162.928424 C36.0247991,157.138429 33.4962962,141.094396 44.0752465,136.964999 C44.6548277,136.737693 44.5975065,135.87898 43.9255744,135.860038" id="Fill-19" fill="#FEB01B"></path>
            <path d="M127.98664,252.593651 C127.98664,254.261201 126.8612,255.612698 125.470767,255.612698 C124.080334,255.612698 122.954894,254.261201 122.954894,252.593651 C122.954894,250.926101 124.080334,249.574603 125.470767,249.574603 C126.8612,249.574603 127.98664,250.926101 127.98664,252.593651" id="Fill-23" fill="#E95F33"></path>
            <path d="M127.98664,278.75873 C127.98664,280.42327 126.8612,281.777778 125.470767,281.777778 C124.080334,281.777778 122.954894,280.42327 122.954894,278.75873 C122.954894,277.09118 124.080334,275.739683 125.470767,275.739683 C126.8612,275.739683 127.98664,277.09118 127.98664,278.75873" id="Fill-25" fill="#E95F33"></path>
            <path d="M99.9773504,214.532991 C99.9773504,214.532991 88.952388,216.318281 86.0705023,220.548642 C83.1886166,224.775769 84.7504332,252.554494 92.171448,256.293254 C99.5924628,260.032013 117.354549,230.358035 117.354549,230.358035 C117.354549,230.358035 132.196578,250.109423 141.739246,253.04933 C151.281914,255.989237 155.522039,221.331324 151.809942,217.938626 C148.097844,214.542694 138.408855,213.346032 138.408855,213.346032 L144.920135,221.758241 C144.920135,221.758241 134.378668,228.766798 117.354549,228.766798 C102.162621,228.766798 95.390508,223.372117 95.390508,223.372117 L99.9773504,214.532991" id="Fill-26" fill-opacity="0.93" fill="#2C2945"></path>
            <path d="M108.906372,137.967374 C110.319514,142.483413 113.419309,146.335426 117.961551,147.927767 C122.301915,149.450733 128.8727,149.718326 131.738057,145.400503 C132.721395,143.917181 130.845889,142.347965 129.462052,143.091278 C125.906404,144.997463 122.940108,145.773812 118.866743,144.594422 C115.219925,143.540569 112.282934,140.580532 110.498598,137.290133 C110.026466,136.414675 108.610068,137.009326 108.906372,137.967374" id="Fill-27" fill="#000000"></path>
            <path d="M121.50042,135.817207 C124.976113,134.76812 134.894399,126.468468 129.361274,122.365161 C126.842748,120.49798 127.48192,120.728971 124.375102,120.793136 C117.576353,120.927881 118.997794,113.609942 118.946915,109.75046 C118.822897,100.783499 118.965995,91.787664 120.148939,82.8912838 C120.355636,81.3224667 117.643132,80.9567302 117.410996,82.5159227 C116.234411,90.385674 116.129473,98.2842994 116.091313,106.22784 C116.062694,111.896756 115.105527,118.560218 117.900709,123.693362 C118.139206,124.132888 118.635279,124.402378 119.124992,124.402378 C125.21461,124.399169 125.678884,130.985635 120.880329,134.331803 C120.158478,134.838701 120.584593,136.096321 121.50042,135.817207" id="Fill-28" fill="#000000"></path>
            <path d="M65.4523906,100.612447 C69.6759223,99.4856945 72.7755541,95.9266878 76.8306628,94.2604981 C82.7254693,91.834628 87.7263382,88.773563 94.4211542,88.7320679 C95.6648936,88.725684 96.3968861,86.7977557 95.1013242,86.251935 C90.5409464,84.3271986 84.3513995,86.6988058 80.0728064,88.6873808 C74.174761,91.4292524 69.5884719,95.2755332 64.794893,99.4984622 C64.2734293,99.9549088 64.8208042,100.78162 65.4523906,100.612447" id="Fill-29" fill="#000000"></path>
            <path d="M141.92651,84.371222 C146.48315,84.6811991 152.353415,89.285176 156.070093,91.8237259 C159.976235,94.4895296 162.527701,98.3658758 166.095963,101.302502 C167.216966,102.22917 168.732688,101.106727 168.085349,99.7199866 C166.032808,95.3444141 161.340385,91.9346651 157.497398,89.3047535 C153.701777,86.707471 146.691561,82.2111705 141.92651,82.5374622 C140.783403,82.6157723 140.783403,84.2929119 141.92651,84.371222" id="Fill-30" fill="#000000"></path>
            <path d="M89.7453699,113.215852 C89.7453699,116.828827 87.4911477,119.755556 84.7136239,119.755556 C81.9361001,119.755556 79.6818779,116.828827 79.6818779,113.215852 C79.6818779,109.602878 81.9361001,106.673016 84.7136239,106.673016 C87.4911477,106.673016 89.7453699,109.602878 89.7453699,113.215852" id="Fill-31" fill="#000000"></path>
            <path d="M158.177116,113.215852 C158.177116,116.828827 155.923587,119.755556 153.146918,119.755556 C150.367153,119.755556 148.113624,116.828827 148.113624,113.215852 C148.113624,109.602878 150.367153,106.673016 153.146918,106.673016 C155.923587,106.673016 158.177116,109.602878 158.177116,113.215852" id="Fill-32" fill="#000000"></path>
            <path d="M79.6818779,89.7267493 C63.6804782,89.7267493 50.6592637,102.745426 50.6592637,118.750797 C50.6592637,134.752987 63.6804782,147.771663 79.6818779,147.771663 C95.6864581,147.771663 108.704492,134.752987 108.704492,118.750797 C108.704492,102.745426 95.6864581,89.7267493 79.6818779,89.7267493 Z M79.6818779,150.952381 C61.9248089,150.952381 47.4787033,136.505562 47.4787033,118.750797 C47.4787033,100.992851 61.9248089,86.5460317 79.6818779,86.5460317 C97.4389469,86.5460317 111.885052,100.992851 111.885052,118.750797 C111.885052,136.505562 97.4389469,150.952381 79.6818779,150.952381 L79.6818779,150.952381 Z" id="Fill-33" fill="#2C2945"></path>
            <path d="M159.183465,89.7267493 C143.178885,89.7267493 130.160851,102.745426 130.160851,118.750797 C130.160851,134.752987 143.178885,147.771663 159.183465,147.771663 C175.184865,147.771663 188.206079,134.752987 188.206079,118.750797 C188.206079,102.745426 175.184865,89.7267493 159.183465,89.7267493 Z M159.183465,150.952381 C141.426396,150.952381 126.980291,136.505562 126.980291,118.750797 C126.980291,100.992851 141.426396,86.5460317 159.183465,86.5460317 C176.940534,86.5460317 191.38664,100.992851 191.38664,118.750797 C191.38664,136.505562 176.940534,150.952381 159.183465,150.952381 L159.183465,150.952381 Z" id="Fill-34" fill="#2C2945"></path>
            <path d="M110.674416,119.755556 L108.866005,117.86962 C109.1275,117.624856 115.35927,111.84153 127.98664,116.589318 L127.063531,119.027541 C116.074443,114.8948 110.888652,119.554724 110.674416,119.755556" id="Fill-35" fill="#2C2945"></path>
            <path d="M109.312021,20.2891681 C93.2093883,21.6952215 77.5003612,27.7944966 66.7290054,32.9245193 C66.3289996,33.8044984 65.938594,34.6876658 65.592989,35.6090931 C65.592989,35.6090931 66.0857961,41.7466281 67.2826134,53.8686583 C67.2826134,53.8686583 91.4109623,30.9158715 128.096293,41.6764848 C138.355641,44.0996155 144.50293,49.0542802 145.037338,56.3555556 C150.445416,39.0620543 134.726789,18.0700905 109.312021,20.2891681" id="Fill-36" fill="#DB4D28"></path>
            <path d="M240.269443,153.075893 C247.272115,140.519125 259.108744,123.507762 241.759032,101.359684 C224.406117,79.2084047 217.445089,91.9188904 215.173866,63.1289519 C213.245408,38.6751176 197.151436,12.0244093 166.984849,3.74930349 C137.580675,-4.31444124 82.0173891,-1.3649937 66.5993382,32.5872786 C77.3820433,27.4345521 93.1076223,21.3082838 109.227222,19.8960076 C134.668768,17.6671091 150.403957,38.7519762 144.990181,56.1220125 C145.159962,58.4469841 144.775552,61.0025315 143.763272,63.7950595 C139.493115,75.5832423 147.520881,90.970968 171.533702,109.138412 C192.89089,125.294723 183.421587,135.51371 175.682129,158.462398 C167.939467,181.414288 166.869526,190.198581 182.175457,202.803386 C187.941609,207.549403 186.612191,218.133468 186.612191,218.133468 C186.612191,218.133468 202.129548,217.127902 209.234729,218.133468 C212.076161,218.533773 206.604723,205.541473 209.974719,205.807275 C212.499012,206.005827 214.843914,218.091837 217.493141,218.133468 C225.850858,218.258363 236.591919,219.007734 243.530522,217.047841 C250.761243,215.007886 246.009968,192.424277 243.072434,184.687182 C240.134899,176.946883 236.00249,160.720118 240.269443,153.075893" id="Fill-37" fill="#EC6F3B"></path>
        </g>
    </g>
</svg>