<?xml version="1.0" encoding="UTF-8"?>
<svg width="296px" height="315px" viewBox="0 0 296 315" version="1.1" xmlns="http://www.w3.org/2000/svg" xmlns:xlink="http://www.w3.org/1999/xlink">
    <title>avatar/HatGuy</title>
    <defs>
        <rect id="path-1" x="0" y="0" width="296" height="296" rx="148"></rect>
    </defs>
    <g id="avatar/HatGuy" stroke="none" stroke-width="1" fill="none" fill-rule="evenodd">
        <g id="Fill-400-+-Fill-401-+-Fill-403-+-Fill-412-+-Fill-413-Mask" transform="translate(0.000000, 19.000000)">
            <mask id="mask-2" fill="white">
                <use xlink:href="#path-1"></use>
            </mask>
            <g id="Mask"></g>
            <path d="M94.5923063,287.227315 C95.0511646,278.695032 95.5069224,270.162748 95.9626803,261.630465 C96.0246882,260.433713 94.164452,260.439914 94.1024441,261.630465 C93.6435858,270.162748 93.187828,278.695032 92.7351705,287.227315 C92.6700622,288.427167 94.5302984,288.420967 94.5923063,287.227315" id="Fill-400" fill="#000000" mask="url(#mask-2)"></path>
            <path d="M202.994472,287.239717 C202.687533,278.701232 202.383694,270.162748 202.076755,261.624264 C202.03335,260.427512 200.176214,260.427512 200.216519,261.624264 C200.523458,270.162748 200.830397,278.701232 201.134235,287.239717 C201.177641,288.433368 203.037877,288.439569 202.994472,287.239717" id="Fill-401" fill="#000000" mask="url(#mask-2)"></path>
            <path d="M219.891617,256.381498 L215.795997,228.350839 C215.795997,228.350839 213.098655,221.260238 205.102739,214.799018 C200.042897,210.712699 192.806578,206.920917 182.829511,205.280809 C176.786844,213.224018 167.039206,219.260484 150.089354,219.260484 C131.043635,219.260484 121.618438,211.90325 117.098064,206.024904 C109.706726,207.361173 98.8274441,210.142226 90.9276409,215.574116 C85.9546094,218.993851 82.162828,223.470819 81.1893043,229.30886 C80.7242453,232.06201 80.2312827,235.084894 79.7259185,238.228693 C78.6407807,244.996852 77.493635,252.347886 76.4705051,258.973427 C74.681578,270.593703 73.2833004,279.972394 73.2833004,279.972394 C73.2833004,279.972394 151.366716,315.360288 223.264846,279.463929 L219.891617,256.381498" id="Fill-403" fill="#FEB01B" mask="url(#mask-2)"></path>
            <path d="M94.5923063,287.227315 C95.0511646,278.695032 95.5069224,270.162748 95.9626803,261.630465 C96.0246882,260.433713 94.164452,260.439914 94.1024441,261.630465 C93.6435858,270.162748 93.187828,278.695032 92.7351705,287.227315 C92.6700622,288.427167 94.5302984,288.420967 94.5923063,287.227315" id="Fill-412" fill="#000000" mask="url(#mask-2)"></path>
            <path d="M202.994472,287.239717 C202.687533,278.701232 202.383694,270.162748 202.076755,261.624264 C202.03335,260.427512 200.176214,260.427512 200.216519,261.624264 C200.523458,270.162748 200.830397,278.701232 201.134235,287.239717 C201.177641,288.433368 203.037877,288.439569 202.994472,287.239717" id="Fill-413" fill="#000000" mask="url(#mask-2)"></path>
        </g>
        <g id="Group-5" transform="translate(25.000000, 0.000000)">
            <path d="M125.089354,238.260484 C142.039206,238.260484 151.786844,232.224018 157.829511,224.280809 C155.339895,223.874658 152.738665,223.552217 149.892503,223.443703 L100.286204,223.874658 C100.286204,223.874658 96.9377787,224.141291 92.0980642,225.024904 C96.6184382,230.90325 106.043635,238.260484 125.089354,238.260484" id="Fill-402" fill="#E95F33"></path>
            <path d="M71.4185628,127.787256 C71.4556429,138.52702 63.155889,147.260829 52.8811843,147.298134 C42.6095799,147.332138 34.2509185,138.647935 34.2135892,127.908171 C34.1765091,117.171508 42.4793634,108.431498 52.7509677,108.397311 C63.0256724,108.36639 71.3812335,117.044392 71.4185628,127.787256" id="Fill-404" fill="#6B4E45"></path>
            <path d="M212.486476,127.306695 C212.523556,138.049559 204.220702,146.786469 193.949098,146.817592 C183.674393,146.854677 175.318832,138.176675 175.281503,127.433811 C175.244422,116.690947 183.547277,107.960238 193.818881,107.922933 C204.093586,107.888929 212.449147,116.570032 212.486476,127.306695" id="Fill-405" fill="#6B4E45"></path>
            <path d="M100.286204,223.874658 C100.286204,223.874658 106.769127,231.855071 124.339058,231.799264 C141.908989,231.740356 149.892503,223.443703 149.892503,223.443703 C149.892503,223.443703 143.629708,217.574658 139.561991,207.885927 C129.436106,212.421803 118.094865,214.973427 106.694718,215.528398 C105.082513,218.659795 102.995948,221.595868 100.286204,223.874658" id="Fill-406" fill="#826459"></path>
            <path d="M112.042897,195.0689 C112.042897,195.0689 111.51893,206.149707 106.694718,215.528398 C118.094865,214.973427 129.436106,212.421803 139.561991,207.885927 C137.931184,204.007335 136.644521,199.530366 136.266273,194.548034 C136.266273,194.548034 122.339304,197.840652 112.042897,195.0689" id="Fill-407" fill="#6B4E45"></path>
            <path d="M39.7448161,128.494146 C39.7882217,128.500347 39.8285268,128.506547 39.8688319,128.512748 C40.1447669,128.556154 40.3493929,128.475543 40.5137138,128.246114 C42.082513,126.066538 43.7505248,124.727167 46.3951606,124.001675 C50.4194717,122.891734 52.8253772,125.920819 54.6887138,128.912699 C55.1754756,129.687797 56.5551508,129.427364 56.4931429,128.429038 C56.2296094,124.27451 51.9944717,121.586469 48.1561843,121.326036 C45.9735071,121.180317 43.642011,122.262354 41.9491961,123.533516 C41.5027394,123.868358 39.2952591,127.495819 39.7448161,127.42761 C39.2177492,127.508221 39.2177492,128.416636 39.7448161,128.494146" id="Fill-408" fill="#000000"></path>
            <path d="M46.2339402,133.278053 C47.5330051,132.69828 48.7948654,131.867374 49.9947177,131.092276 C51.4922079,130.128053 53.3028378,130.413289 55.0111547,130.41949 C56.5861547,130.425691 56.5861547,127.97328 55.0111547,127.97948 C53.2067256,127.985681 51.4488024,127.870967 49.7652886,128.590258 C48.7824638,129.008811 47.8461449,129.814914 47.0245406,130.487699 C46.2928476,131.086075 46.2277394,131.879776 45.626263,132.490553 C45.2015091,132.921508 45.7347768,133.501282 46.2339402,133.278053" id="Fill-409" fill="#000000"></path>
            <path d="M205.653084,126.87264 C206.080938,126.937748 203.882759,123.32889 203.423901,122.990947 C201.548163,121.59577 199.517405,120.96639 197.204511,120.820671 C193.391027,120.585041 189.121785,124.200101 188.910958,127.97328 C188.85205,128.965406 190.228625,129.23824 190.712287,128.456941 C192.308989,125.858811 193.88709,123.570721 197.204511,123.285484 C200.444422,123.009549 203.116962,125.266636 204.881086,127.688043 C205.048507,127.920573 205.246932,127.998083 205.525968,127.954677 C205.569373,127.948476 205.609678,127.942276 205.653084,127.936075 C206.180151,127.858565 206.180151,126.95015 205.653084,126.87264" id="Fill-410" fill="#000000"></path>
            <path d="M199.802641,131.975888 C199.32208,131.492226 199.225968,130.760534 198.723704,130.248969 C197.988911,129.498673 196.981283,128.9189 196.110072,128.354628 C194.423458,127.26639 192.305889,127.520622 190.396046,127.526823 C188.821046,127.533024 188.821046,129.985435 190.396046,129.966833 C191.878035,129.954431 193.598753,129.656793 194.956726,130.329579 C196.413911,131.04887 197.706775,132.103004 199.194964,132.763388 C199.694127,132.986616 200.230495,132.406843 199.802641,131.975888" id="Fill-411" fill="#000000"></path>
            <path d="M79.9631232,136.462158 C91.0749343,151.709894 99.0832512,157.650248 110.452395,152.999658 C121.818438,148.349067 125.703231,147.685583 131.380052,147.298034 C138.355938,146.817473 142.916617,152.484992 149.892503,154.035189 C156.868389,155.585386 162.383989,140.108221 171.68517,130.534205 C180.208153,121.760091 183.686794,119.543309 189.831775,120.405219 C189.348113,80.2520198 176.766716,38.0680631 122.525328,38.2842568 C74.8691764,38.4804155 56.5520504,79.8148643 55.7955543,119.580514 C62.0676508,121.632975 72.5965878,126.357975 79.9631232,136.462158" id="Fill-414" fill="#826459"></path>
            <path d="M187.339058,142.414914 C188.988468,135.972295 189.878281,129.185534 189.856966,122.166242 C189.853478,121.580268 189.837976,120.991193 189.831775,120.405219 C183.686794,119.543309 180.208153,121.760091 171.68517,130.534205 C162.383989,140.108221 156.868389,155.585386 149.892503,154.035189 C142.916617,152.484992 138.355938,146.817473 131.380052,147.298034 C125.703231,147.685583 121.818438,148.349067 110.452395,152.999658 C99.0832512,157.650248 91.0749343,151.709894 79.9631232,136.462158 C72.5965878,126.357975 62.0676508,121.632975 55.7955543,119.580514 C55.776952,120.591242 55.7583496,121.608171 55.7633341,122.615799 C55.863763,152.401282 72.0664205,177.98573 95.2728673,189.503693 C131.727296,190.464815 165.109235,170.730809 187.339058,142.414914" id="Fill-415" fill="#2C2945"></path>
            <path d="M95.2728673,189.503693 C103.749344,193.710927 113.152838,196.054825 123.058596,196.024125 C153.690485,195.921508 179.429954,173.263831 187.339058,142.414914 C165.109235,170.730809 131.727296,190.464815 95.2728673,189.503693" id="Fill-416" fill="#1E1D35"></path>
            <path d="M98.4228673,123.359894 C98.4228673,126.218457 96.6184382,128.537551 94.3923555,128.537551 C92.1631724,128.537551 90.3587433,126.218457 90.3587433,123.359894 C90.3587433,120.49513 92.1631724,118.182236 94.3923555,118.182236 C96.6184382,118.182236 98.4228673,120.49513 98.4228673,123.359894" id="Fill-417" fill="#000000"></path>
            <path d="M162.021243,123.359894 C162.021243,126.218457 160.216814,128.537551 157.990731,128.537551 C155.764649,128.537551 153.96022,126.218457 153.96022,123.359894 C153.96022,120.49513 155.764649,118.182236 157.990731,118.182236 C160.216814,118.182236 162.021243,120.49513 162.021243,123.359894" id="Fill-418" fill="#000000"></path>
            <path d="M71.9393043,75.3409962 C72.1315287,74.0605336 72.2710465,73.0746084 72.3609579,72.4390277 C72.078822,72.4204253 71.7935858,72.4142245 71.5145504,72.3956222 C71.5827591,73.0312029 71.7067748,74.1101399 71.9393043,75.3409962" id="Fill-419" fill="#FEB01B"></path>
            <path d="M71.4370406,72.3894214 C71.4618437,72.3894214 71.4897472,72.3894214 71.5145504,72.3956222 C71.4401409,71.6515277 71.4370406,71.4872068 71.4370406,72.3894214" id="Fill-420" fill="#FEB01B"></path>
            <path d="M190.57897,45.2609765 C201.104806,31.8238702 177.03645,16.5823348 130.852985,18.3929647 C84.6664205,20.1973938 61.5777886,38.2850907 61.5777886,38.2850907 L54.6608102,46.0360749 L52.524639,54.3017245 C37.2024933,69.0285946 44.2434874,110.57077 44.2434874,110.57077 C49.2444224,110.248329 55.4204067,119.580514 55.4204067,119.580514 C64.1666173,117.242817 69.4961941,86.1861733 71.102198,75.3409962 C70.8758693,74.1101399 70.7549539,73.0312029 70.6929461,72.3956222 C70.6681429,72.3894214 70.637139,72.3894214 70.6154362,72.3894214 C70.6154362,71.4872068 70.6185366,71.6515277 70.6929461,72.3956222 C70.9626803,72.4142245 71.235515,72.4204253 71.51145,72.4390277 C71.5796587,71.9243623 71.6199638,71.614323 71.6199638,71.614323 C72.0633201,71.9305631 72.5686843,72.2220001 73.0678476,72.5165375 C113.732611,74.9410454 156.744373,66.0026104 190.681283,45.3663899 C190.616174,45.2981812 190.57897,45.2609765 190.57897,45.2609765" id="Fill-421" fill="#2C2945"></path>
            <path d="M73.0678476,72.5165375 C94.6341862,85.190947 167.208202,77.5670789 167.499639,79.1048741 C169.607907,90.1143722 184.768832,120.603644 189.831775,120.405219 C191.400574,112.096164 194.423458,108.651626 194.423458,108.651626 C196.497621,91.1747068 189.568241,66.188634 189.568241,66.188634 C199.216667,54.6489686 191.667208,46.3585159 190.681283,45.3663899 C156.744373,66.0026104 113.732611,74.9410454 73.0678476,72.5165375" id="Fill-422" fill="#1E1D35"></path>
            <path d="M123.046194,155.678398 C122.3021,157.954087 124.137533,161.479234 125.855151,162.927118 C127.498359,164.306793 131.550574,165.081892 133.429413,163.931646 C134.061893,163.544097 134.074294,162.610878 133.429413,162.223329 C131.786204,161.237404 129.544619,162.096213 127.733989,161.252906 C125.774541,160.34139 125.157562,157.287502 124.149934,155.532679 C123.8802,155.06452 123.204314,155.191636 123.046194,155.678398" id="Fill-423" fill="#000000"></path>
            <path d="M133.528625,141.956055 C137.89398,138.988978 145.37523,129.383959 138.436548,125.322443 C134.499048,123.01265 125.504806,136.40325 124.42897,123.995475 C124.03832,119.484402 124.280151,114.892719 124.280151,110.369244 C124.280151,106.0845 123.573261,97.1336635 125.783842,93.5589096 C126.307808,92.7187029 125.262976,91.6521674 124.413468,92.1916359 C121.961056,93.7480336 122.3052,101.213782 122.119176,103.545278 C121.558005,110.539766 120.410859,120.665652 122.441617,127.452414 C123.204314,129.994736 123.852296,133.079628 127.082907,133.079628 C128.651706,133.079628 130.539846,131.44262 131.624983,130.667522 C134.080495,127.756252 136.24457,128.646065 138.123409,133.346262 C136.920456,136.347443 135.116027,138.868063 132.710121,140.895721 C132.164452,141.422788 132.883743,142.39011 133.528625,141.956055" id="Fill-424" fill="#000000"></path>
            <path d="M70.1472768,108.397394 C70.1472768,108.397394 84.0184382,90.7313505 94.3923555,88.151823 C99.5328083,86.2450808 100.211794,89.8291359 99.5328083,91.2832206 C99.5328083,91.2832206 102.155741,94.3836143 98.4228673,96.9042344 C98.4228673,96.9042344 97.49895,99.8093033 92.656135,100.680514 C87.8102197,101.554825 67.5956528,113.209205 70.1472768,108.397394" id="Fill-425" fill="#2C2945"></path>
            <path d="M177.048852,108.397394 C177.048852,108.397394 163.17769,90.7313505 152.803773,88.151823 C147.66332,86.2450808 146.984334,89.8291359 147.66332,91.2832206 C147.66332,91.2832206 145.040387,94.3836143 148.773261,96.9042344 C148.773261,96.9042344 149.697178,99.8093033 154.543094,100.680514 C159.385909,101.554825 179.603576,113.209205 177.048852,108.397394" id="Fill-426" fill="#2C2945"></path>
            <path d="M41.2144028,77.0772167 C41.2144028,77.0772167 36.1452591,40.6723938 45.9766075,32.5834667 C55.8079559,24.4976399 126.304708,-2.83543099 165.701411,0.240159565 C190.58517,-0.910086498 194.804806,48.6032009 195.38148,46.4422265 C195.964354,44.2874529 41.2144028,77.0772167 41.2144028,77.0772167" id="Fill-427" fill="#BF674F"></path>
            <path d="M175.281627,53.690947 C115.781972,51.7904056 55.7335465,74.9689489 28.9926508,96.4174726 C15.3509185,107.361862 23.4057413,117.084697 34.5609579,123.989274 C35.184137,119.822345 36.9668634,113.615356 42.0546094,111.975248 C53.966322,108.149362 57.0202098,119.999067 57.0202098,119.999067 L58.344078,96.4174726 C91.1555445,78.3297757 153.138615,59.9041359 182.462139,71.772443 C190.730889,75.1208682 189.87518,112.158171 189.87518,112.158171 C189.87518,112.158171 205.358546,108.462502 217.468684,101.492817 C227.244226,76.2897167 223.226115,55.2225415 175.281627,53.690947" id="Fill-428" fill="#CD7659"></path>
            <path d="M241.242503,56.2518722 C220.057513,24.1038899 122.392011,43.4441458 68.6621882,62.5673741 C14.9323654,81.6844017 -3.17393386,92.5357796 0.444225592,109.70886 C4.06238504,126.878841 34.2137138,127.908171 34.2137138,127.908171 C34.2137138,127.908171 34.223015,126.24016 34.5609579,123.989274 C23.4057413,117.084697 15.3509185,107.361862 28.9926508,96.4174726 C55.7335465,74.9689489 115.781972,51.7904056 175.281627,53.690947 C223.226115,55.2225415 227.244226,76.2897167 217.468684,101.492817 C234.954905,91.4289391 253.761893,75.2479844 241.242503,56.2518722" id="Fill-429" fill="#D67B63"></path>
        </g>
    </g>
</svg>