<?xml version="1.0" encoding="UTF-8"?>
<svg width="296px" height="315px" viewBox="0 0 296 315" version="1.1" xmlns="http://www.w3.org/2000/svg" xmlns:xlink="http://www.w3.org/1999/xlink">
    <title>avatar/blackhair</title>
    <defs>
        <rect id="path-1" x="0" y="0" width="296" height="296" rx="148"></rect>
    </defs>
    <g id="avatar/blackhair" stroke="none" stroke-width="1" fill="none" fill-rule="evenodd">
        <g id="Fill-75-+-Fill-83-+-Fill-84-Mask" transform="translate(0.000000, 19.000000)">
            <mask id="mask-2" fill="white">
                <use xlink:href="#path-1"></use>
            </mask>
            <g id="Mask"></g>
            <path d="M222.680207,231.34586 C222.680207,231.34586 218.195804,219.584492 203.914067,211.701103 C201.003866,214.59409 197.983194,217.263215 194.572424,219.529387 C166.461189,235.110187 129.936951,230.88436 110.438946,207 C96.7786047,209.755225 75.461292,216.560632 72.7996486,232.410066 C69.2404341,253.63219 64,288.692433 64,288.692433 C64,288.692433 150.943566,328.006055 231,288.131056 L222.680207,231.34586" id="Fill-75" fill="#64AD99" mask="url(#mask-2)"></path>
            <path d="M88.3030574,297.016935 C88.8668005,287.671887 89.4305435,278.326839 89.9981215,268.981791 C90.0748213,267.671039 87.7776642,267.674435 87.6971295,268.981791 C87.1333864,278.326839 86.5658084,287.671887 86.0020654,297.016935 C85.9215306,298.331082 88.2225227,298.324291 88.3030574,297.016935" id="Fill-83" fill="#000000" mask="url(#mask-2)"></path>
            <path d="M207.844,297.017796 C207.55,287.670761 207.253,278.327118 206.956,268.983475 C206.914,267.673872 205.114,267.670479 205.156,268.983475 C205.453,278.327118 205.747,287.670761 206.047,297.017796 C206.086,298.324006 207.886,298.330792 207.844,297.017796" id="Fill-84" fill="#000000" mask="url(#mask-2)"></path>
        </g>
        <g id="Group-6" transform="translate(42.469283, 0.000000)">
            <path d="M11.9461095,97 C11.9461095,97 13.7778256,169.508011 0.530716724,191.745321 C0.530716724,191.745321 12.426503,205.587477 44.7822121,206.613974 C44.7822121,206.613974 49.8488079,191.441174 50.2808164,186.471132 C50.2808164,186.471132 52.0088504,205.266049 51.7945742,208.504526 C51.7945742,208.504526 122.211961,215.416963 161.739011,209.800608 C161.739011,209.800608 161.956744,193.169283 164.116786,189.063296 C164.116786,189.063296 166.276829,205.480334 170.379181,208.29024 C170.379181,208.29024 193.330929,208.936553 208.530717,200.296006 C208.530717,200.296006 196.7317,156.986131 195.435675,143.105957 C194.139649,129.229239 198.92976,98.7764964 198.92976,98.7764964" id="Fill-70" fill="#1E1D35"></path>
            <path d="M83.7916063,206.179894 C83.7811891,206.242373 103.181485,201.244041 132.4052,206.179894 L142.530717,224.278019 L74.5307167,225 L83.7916063,206.179894" id="Fill-71" fill="#549E87"></path>
            <path d="M47.5307167,117.431442 C47.5715758,129.307272 38.4225613,138.962167 27.1041576,139 C15.7823375,139.040997 6.5718285,129.444367 6.53071672,117.568537 C6.4932522,105.699562 15.635434,96.0412391 26.9606704,96 C38.2756578,95.9624097 47.4929995,105.55904 47.5307167,117.431442" id="Fill-72" fill="#F9B28F"></path>
            <path d="M204.530717,117.431453 C204.571579,129.303861 195.425219,138.962188 184.102455,139 C172.783108,139.03759 163.571832,129.444383 163.530717,117.571975 C163.493249,105.696139 172.636193,96.0378118 183.962373,96 C195.278303,95.9624096 204.492996,105.559044 204.530717,117.431453" id="Fill-73" fill="#F9B28F"></path>
            <path d="M152.236556,238.773563 C155.629989,236.501238 158.635307,233.824868 161.530717,230.924028 C154.929321,227.253085 146.239658,224.417859 134.891576,224 L79.9371872,224.473113 C79.9371872,224.473113 75.1286781,224.863345 68.5307167,226.210164 C87.9296162,250.159359 124.268206,254.396658 152.236556,238.773563" id="Fill-74" fill="#549E87"></path>
            <path d="M79.5307167,224.048763 C79.5307167,224.048763 86.7219667,233.066144 106.202279,232.999634 C125.682592,232.933124 134.530717,223.56919 134.530717,223.56919 C134.530717,223.56919 127.590404,216.939175 123.080404,206 C111.853529,211.124785 99.2722792,214.002225 86.6360292,214.628821 C84.8519667,218.160862 82.5350917,221.482871 79.5307167,224.048763" id="Fill-76" fill="#FCCEB6"></path>
            <path d="M92.5508073,192.571006 C92.5508073,192.571006 91.957523,204.721886 86.5307167,215 C99.3596169,214.391606 112.132679,211.597754 123.530717,206.621841 C121.695025,202.366484 120.243224,197.461948 119.820945,192 C119.820945,192 104.1373,195.609576 92.5508073,192.571006" id="Fill-77" fill="#F9B28F"></path>
            <path d="M179.530717,111.0554 C179.685204,156.174076 146.450755,192.862023 105.306459,193 C64.1587172,193.1372 30.6865592,156.676274 30.5307167,111.557598 C30.3833943,66.4423608 50.4129463,18.2176263 104.717354,18 C165.863642,17.7567051 179.378594,65.9401632 179.530717,111.0554" id="Fill-78" fill="#FCCEB6"></path>
            <path d="M11.9713664,118.027509 C12.0160327,118.03444 12.0641348,118.041371 12.1122369,118.048302 C12.4180289,118.096818 12.6413601,118.013647 12.8268968,117.757201 C14.5654445,115.314036 16.4036323,113.820413 19.3378611,113.006025 C23.7907422,111.768847 26.4638452,115.154624 28.532236,118.495349 C29.0682309,119.358254 30.5971909,119.074084 30.5284736,117.951268 C30.236425,113.304056 25.5430334,110.309879 21.2859966,110.015313 C18.8671476,109.84897 16.2833771,111.061889 14.4142665,112.482737 C13.916066,112.860474 11.4766018,116.915089 11.9713664,116.838848 C11.3838335,116.928951 11.3838335,117.940872 11.9713664,118.027509" id="Fill-79" fill="#000000"></path>
            <path d="M19.3840979,123.943366 C20.8386084,123.286231 22.2514623,122.357898 23.5914171,121.488671 C25.2785105,120.403877 27.2953854,120.734183 29.2081189,120.73766 C30.9715827,120.741137 30.9715827,117.987428 29.2081189,118.001336 C27.1877725,118.015243 25.2229683,117.876167 23.3345346,118.682809 C22.2375768,119.152191 21.1822756,120.056186 20.2658298,120.810675 C19.4535256,121.481717 19.3736838,122.375282 18.7037064,123.060232 C18.2281265,123.543522 18.8252048,124.19718 19.3840979,123.943366" id="Fill-80" fill="#000000"></path>
            <path d="M197.091233,116.727833 C197.589563,116.800153 195.118534,112.791576 194.623641,112.419647 C192.540967,110.876827 190.293328,110.174293 187.729507,110.012435 C183.498859,109.747263 178.766444,113.76617 178.532745,117.953823 C178.467447,119.062725 179.996803,119.365779 180.529501,118.494499 C182.302867,115.605156 184.04874,113.070524 187.729507,112.750251 C191.324355,112.440309 194.279966,114.954279 196.23548,117.643882 C196.421065,117.895279 196.641018,117.984818 196.950326,117.936604 C196.99844,117.929717 197.046555,117.919386 197.091233,117.912498 C197.672045,117.816072 197.682355,116.810484 197.091233,116.727833" id="Fill-81" fill="#000000"></path>
            <path d="M190.357788,122.056355 C189.817715,121.510391 189.710393,120.684445 189.149548,120.103484 C188.329054,119.260039 187.20044,118.605582 186.227617,117.968624 C184.340825,116.736705 181.986662,117.030685 179.847144,117.030685 C178.091908,117.027186 178.091908,119.795504 179.847144,119.785005 C181.505444,119.774505 183.423394,119.435027 184.939752,120.194478 C186.570355,121.006424 188.017473,122.199846 189.675773,122.945297 C190.229694,123.193781 190.835544,122.542823 190.357788,122.056355" id="Fill-82" fill="#000000"></path>
            <path d="M106.174397,210.503216 C92.767363,210.503216 88.3006584,206 84.2629789,206 C77.7480256,206 73.1256264,215.603621 70.5307167,224.391316 C73.741485,231.411751 87.8681735,238.279416 102.572662,237.991238 C117.27715,237.70306 130.576927,238.716891 143.530717,224.294099 C143.530717,224.294099 141.638163,202.809209 129.096099,206.597188 C116.093871,210.524049 120.878885,210.503216 106.174397,210.503216" id="Fill-85" fill="#64AD99"></path>
            <path d="M77.5307167,115 C77.5307167,118.312575 75.5161013,121 73.0307167,121 C70.5453321,121 68.5307167,118.312575 68.5307167,115 C68.5307167,111.683832 70.5453321,109 73.0307167,109 C75.5161013,109 77.5307167,111.683832 77.5307167,115" id="Fill-86" fill="#000000"></path>
            <path d="M147.530717,116 C147.530717,119.312575 145.516876,122 143.032447,122 C140.544558,122 138.530717,119.312575 138.530717,116 C138.530717,112.683832 140.544558,110 143.032447,110 C145.516876,110 147.530717,112.683832 147.530717,116" id="Fill-87" fill="#000000"></path>
            <path d="M103.714469,139.474081 C102.908395,141.936229 104.90503,145.746855 106.773503,147.310017 C108.557658,148.802736 112.962397,149.641342 115.009623,148.39685 C115.697653,147.977547 115.711144,146.97122 115.009623,146.551917 C113.222095,145.48521 110.783637,146.414385 108.817356,145.498628 C106.685813,144.509072 106.014647,141.215028 104.915148,139.316423 C104.618351,138.809905 103.886476,138.947437 103.714469,139.474081" id="Fill-88" fill="#000000"></path>
            <path d="M112.055148,130.871843 C116.386216,135.638636 122.570595,123.967384 122.530523,120.602792 C122.493791,117.722783 118.977511,114.969935 116.259323,115.866931 C115.237498,116.200297 114.215673,116.54741 113.200527,116.90827 C109.367014,118.238298 109.921337,111.945583 109.95473,110.409349 C110.054909,105.532581 109.771069,100.143734 111.120145,95.4250568 C111.530878,93.9850526 109.390389,93.3939291 108.949602,94.809876 C107.647276,99.0199122 107.754133,103.772957 107.670651,108.168579 C107.617222,110.91799 107.086274,114.650316 108.518832,117.169464 C109.206728,118.375769 110.712751,119.561452 112.151988,119.35181 C113.297367,119.293385 114.392656,119.02188 115.434517,118.537297 C119.64537,121.853774 120.546981,124.592875 118.152705,126.74429 C117.194326,127.765009 114.352584,130.85466 112.783115,129.902676 C112.185381,129.541816 111.601004,130.366639 112.055148,130.871843" id="Fill-89" fill="#000000"></path>
            <path d="M138.815534,85.3215197 C138.661083,85.5956021 138.562796,85.7783236 138.534714,86.0910587 C138.48206,86.5865152 138.959454,86.9027641 139.384195,86.9449306 C148.700401,87.8831357 156.780998,98.0839191 160.16488,106.176377 C160.635254,107.311359 162.664179,107.335956 162.523769,105.856614 C161.9867,100.164134 156.696752,94.1343219 152.435308,90.6836952 C149.928989,88.6526746 146.839968,86.8360005 143.884336,85.5534355 C142.792648,85.0790622 142.160803,84.9841876 141.041033,85.0720345 C139.31399,85.2090757 140.640865,86.5513765 139.952855,85.3215197 C139.710648,84.8928268 139.054231,84.8928268 138.815534,85.3215197" id="Fill-90" fill="#000000"></path>
            <path d="M72.7068645,88 C68.5766219,88.027189 63.604392,89.3718871 60.3577165,92.0307219 C56.0784803,95.5452738 51.6675753,100.567517 48.7050272,105.199255 C47.9808488,106.330024 49.6890783,107.654348 50.6072949,106.635637 C57.218455,99.2975248 62.2773091,91.1919835 72.9286224,89.6095862 C73.8814888,89.4703624 73.6250811,87.9932319 72.7068645,88" id="Fill-91" fill="#000000"></path>
            <path d="M187.530717,37.8531586 C181.183345,26.0632885 171.556671,15.4801462 156.89504,9.06506984 C119.939694,-7.09745507 93.7779959,2.09170842 82.5307167,8.0733337 C111.635822,32.1558773 149.280272,39.1431091 187.530717,37.8531586" id="Fill-92" fill="#2C2945"></path>
            <path d="M167.30586,91.3221766 C172.975377,92.185921 178.355807,96.4770028 178.355807,96.4770028 C189.123468,93.85813 198.530717,103 198.530717,103 C198.119192,102.467933 199.112293,91.5329303 197.619241,77.0773051 C186.096551,76.2826603 174.672491,74.2234938 163.530717,71 C166.387582,79.3714101 167.30586,91.3221766 167.30586,91.3221766" id="Fill-93" fill="#2C2945"></path>
            <path d="M72.8740522,12.0559346 C45.1054147,10.792143 18.5780449,31.1539944 9.76538791,51.8464288 C0.595135776,73.3687645 13.836471,101 13.836471,101 C25.0766488,93.6204215 30.915077,96.1824404 30.915077,96.1824404 C46.9105824,89.439923 69.9342076,86.282166 69.9342076,86.282166 L72.8018455,63.8989368 C75.666045,68.4926641 78.244856,86.282166 78.244856,86.282166 C78.244856,86.282166 86.8408929,86.282166 104.170503,86.282166 C121.500114,86.282166 160.481422,89.2952929 160.481422,89.2952929 L162.530717,70.6896642 C127.874934,60.6447597 96.0420908,39.8111387 72.8740522,12.0559346" id="Fill-94" fill="#2C2945"></path>
            <path d="M82.5307167,8.00743233 C78.3916603,10.3388239 77.4153923,12 77.4153923,12 C76.2607199,11.8681766 73.7405427,12.0527294 72.5894232,12 C96.5284465,42.3570532 126.361916,61.1511073 162.170971,72.1376488 L162.323743,70.6762919 C162.533361,71.2224175 162.73232,71.7911415 162.92062,72.3749309 C174.559718,75.888967 185.493701,76.4739704 197.530717,77.3402386 C196.241036,64.3349155 193.857272,50.6727271 186.71962,36.6354148 C147.47497,38.0365096 114.392321,34.1649676 84.5307167,8.00743233 L82.5307167,8.00743233 Z" id="Fill-95" fill="#343351"></path>
            <path d="M92.3479357,143.029 C90.9436566,149.269168 81.8261178,152.526549 71.985889,150.298899 C62.1490853,148.07468 55.3092187,141.213241 56.7134978,134.969641 C58.1177768,128.729472 67.2353157,125.475523 77.0755444,127.699742 C86.9123481,129.92396 93.7522148,136.785399 92.3479357,143.029" id="Fill-96" fill="#F9B28F"></path>
            <path d="M163.177648,133.921968 C165.128006,140.09669 158.801487,147.602261 149.053165,150.68441 C139.311783,153.763084 129.82721,151.254277 127.883792,145.079555 C125.933434,138.901359 132.259953,131.399263 142.004805,128.317114 C151.749657,125.234965 161.230759,127.747247 163.177648,133.921968" id="Fill-97" fill="#F9B28F"></path>
            <path d="M74.6889386,229.722361 C90.9622652,241.732339 123.968191,245.032408 139.261279,229.692269 C140.029018,228.923256 139.007651,227.515628 138.054832,228.167617 C119.937561,240.53201 93.8721334,239.411925 75.0419615,229.127212 C74.6341001,228.903195 74.3324883,229.458222 74.6889386,229.722361" id="Fill-98" fill="#000000"></path>
            <path d="M76.8141655,227.534508 C78.801357,222.3386 81.2107849,217.378711 83.4560097,212.307755 C83.8112244,211.495569 82.8193041,210.502897 82.1725453,211.283845 C78.7812505,215.372542 76.8677828,222.043575 75.5575098,227.177007 C75.3396895,228.037785 76.5125681,228.329339 76.8141655,227.534508" id="Fill-99" fill="#000000"></path>
            <path d="M86.6273617,230.544527 C86.6654597,230.59838 86.7073675,230.652233 86.7492754,230.706086 C87.1302558,231.217688 88.0484185,231.029203 88.0636577,230.3897 C88.193191,225.145775 89.1608812,220.144188 90.5019321,215.048358 C90.776238,213.988129 89.008489,213.55394 88.6579871,214.59734 C86.9397656,219.709999 86.5206872,225.088556 86.6502205,230.3897 C87.0045322,230.211313 87.3626538,230.029559 87.7131557,229.851171 C87.6521989,229.817513 87.591242,229.780489 87.534095,229.743466 C86.9816734,229.42708 86.2692401,230.059851 86.6273617,230.544527" id="Fill-100" fill="#000000"></path>
            <path d="M97.912697,232.432326 C97.933697,232.486868 97.951697,232.54141 97.972697,232.595951 C98.173697,233.158413 99.028697,233.158413 98.986697,232.439144 C98.653697,226.903154 99.289697,221.326259 98.953697,215.820949 C98.896697,214.944872 97.645697,214.62103 97.513697,215.599373 C96.814697,220.78425 96.724697,227.530385 97.972697,232.595951 C98.224697,232.374376 98.479697,232.1528 98.731697,231.931224 C98.677697,231.907362 98.623697,231.880091 98.575697,231.856229 C98.263697,231.70283 97.744697,231.961903 97.912697,232.432326" id="Fill-101" fill="#000000"></path>
            <path d="M107.618105,214.584077 C107.840105,217.485651 108.107105,220.373425 108.356105,223.275 C108.590105,225.962665 108.410105,228.705533 108.872105,231.355246 C109.049105,232.386841 110.366105,232.086678 110.405105,231.117186 C110.627105,225.545197 109.892105,219.966308 108.848105,214.539225 C108.785105,214.211461 108.518105,214.038954 108.251105,214.014803 C108.209105,214.011352 108.164105,214.007902 108.125105,214.001002 C107.867105,213.980301 107.594105,214.283914 107.618105,214.584077" id="Fill-102" fill="#000000"></path>
            <path d="M119.323669,234.306563 C119.316274,234.354668 119.30888,234.402774 119.301485,234.45088 C119.708197,234.45088 120.111212,234.45088 120.521621,234.45088 C120.495739,227.843213 120.898754,219.867969 118.340165,213.603914 C117.914966,212.566205 116.336184,212.961359 116.550632,214.064355 C117.874295,220.83352 117.730097,227.918808 119.323669,234.602069 C119.471564,235.213699 120.606661,235.086563 120.521621,234.45088 C120.514226,234.402774 120.506832,234.354668 120.499437,234.306563 C120.403305,233.602157 119.419801,233.602157 119.323669,234.306563" id="Fill-103" fill="#000000"></path>
            <path d="M122.568355,211.872974 C123.390252,214.174485 124.233134,216.455009 124.967596,218.787999 C125.765011,221.316863 126.069288,223.985636 127.013595,226.469029 C127.303883,227.22454 128.597934,227.189562 128.527985,226.262662 C128.136272,221.127985 126.170714,215.891873 123.844919,211.33782 C123.48818,210.638273 122.306047,211.127956 122.568355,211.872974" id="Fill-104" fill="#000000"></path>
            <path d="M131.562672,209.886934 C131.629575,210.069687 131.683098,210.228749 131.816905,210.374275 C132.268502,210.854848 133.051272,210.475804 133.064653,209.849706 C133.064653,209.80571 133.064653,209.754945 133.064653,209.710949 C132.613055,209.836169 132.158112,209.958004 131.699824,210.083224 C133.024511,212.029205 134.332472,213.9075 135.121931,216.147916 C135.964914,218.544011 136.413167,221.001023 137.038713,223.451267 C137.249459,224.297346 138.540694,224.114593 138.530717,223.248209 C138.477136,218.026211 135.978295,213.382931 132.967643,209.33529 C132.559532,208.790416 131.582743,208.905482 131.602814,209.710949 C131.602814,209.754945 131.602814,209.80571 131.606159,209.849706 C132.02096,209.677106 132.435761,209.501122 132.850562,209.328522 C132.710065,209.189765 132.549497,209.135616 132.372203,209.067929 C131.91726,208.891945 131.395413,209.430051 131.562672,209.886934" id="Fill-105" fill="#000000"></path>
        </g>
    </g>
</svg>