<?xml version="1.0" encoding="UTF-8"?>
<svg width="136px" height="136px" viewBox="0 0 136 136" version="1.1" xmlns="http://www.w3.org/2000/svg" xmlns:xlink="http://www.w3.org/1999/xlink">
    <title>mini/bee</title>
    <defs>
        <path d="M76.1609336,22.7952031 C76.1609336,28.0466641 72.699293,32.3041133 59.0447109,32.3041133 C45.3901289,32.3041133 41.9284883,28.0466641 41.9284883,22.7952031 C41.9284883,17.5437422 45.3901289,13.286293 59.0447109,13.286293 C72.699293,13.286293 76.1609336,17.5437422 76.1609336,22.7952031 Z" id="path-1"></path>
    </defs>
    <g id="mini/bee" stroke="none" stroke-width="1" fill="none" fill-rule="evenodd">
        <g id="abeja" transform="translate(68.000000, 68.000000) rotate(30.000000) translate(-68.000000, -68.000000) translate(9.000000, 23.000000)" fill-rule="nonzero">
            <g id="Group" transform="translate(32.265625, 0.000000)" fill="#121212">
                <path d="M22.9772734,9.48309766 C22.3626133,9.48309766 21.7590156,9.18602344 21.3930312,8.636125 C19.6529922,6.02652734 17.5299141,4.52064453 14.9057969,4.03573828 C9.22635547,2.98065234 3.21642188,7.18555469 3.15880469,7.22842188 C2.30261328,7.83778125 1.11569922,7.63519922 0.506800781,6.78085156 C-0.100484375,5.92650391 0.0963359375,4.74166406 0.950683594,4.13230469 C1.24775781,3.91889063 8.29964063,-1.0435625 15.5746172,0.291542969 C19.2222461,0.960363281 22.2455352,3.0569375 24.5580586,6.52641406 C25.1411445,7.40127344 24.905375,8.58058203 24.0305156,9.16366797 C23.7053242,9.37892578 23.3393398,9.48309766 22.9772734,9.48309766 Z" id="Path"></path>
                <path d="M30.5813594,9.48309766 C31.1960195,9.48309766 31.7996172,9.18602344 32.1656016,8.636125 C33.9056406,6.02652734 36.0287188,4.52064453 38.6528359,4.03573828 C44.3322773,2.98065234 50.3422109,7.18555469 50.3998281,7.22842188 C51.2560195,7.83778125 52.4429336,7.63519922 53.051832,6.78085156 C53.6591172,5.92650391 53.4622969,4.74166406 52.6079492,4.13230469 C52.310875,3.91889063 45.2589922,-1.0435625 37.9840156,0.291542969 C34.3363867,0.960363281 31.3130977,3.0569375 29.0005742,6.52641406 C28.4174883,7.40127344 28.6532578,8.58058203 29.5281172,9.16366797 C29.8533086,9.37892578 30.2190625,9.48309766 30.5813594,9.48309766 Z" id="Path"></path>
            </g>
            <path d="M72.3572773,17.0901797 C72.3572773,10.7880117 66.397125,5.67944141 59.0447109,5.67944141 C51.6922969,5.67944141 45.7321445,10.7882422 45.7321445,17.0901797" id="Path" fill="#121212"></path>
            <ellipse id="Oval" fill="#FFEDB0" cx="59.0435586" cy="58.929707" rx="24.7233047" ry="30.4285586"></ellipse>
            <g id="Group" transform="translate(34.339844, 44.019531)" fill="#121212">
                <path d="M3.15212109,0.02765625 C1.76055078,3.07353125 0.799496094,6.44621094 0.329109375,10.026082 C4.20720703,11.7928555 11.4234141,14.1938789 24.7041758,14.1938789 C37.9865508,14.1938789 45.2029883,11.7919336 49.080625,10.0251602 C48.6102383,6.44551953 47.6489531,3.07307031 46.2573828,0.0271953125 C41.723832,1.40101953 34.9162461,2.67435937 24.7044063,2.67435937 C14.4932578,2.67412891 7.68567188,1.40148047 3.15212109,0.02765625 Z" id="Path"></path>
                <path d="M0.2175625,18.8940586 C0.77990625,24.1750195 2.44043359,29.0180898 4.91105859,33.0863242 C9.19777734,34.5362031 15.4824297,35.8293633 24.7039453,35.8293633 C33.9270742,35.8293633 40.2126484,34.5357422 44.4991367,33.0854023 C46.9695313,29.017168 48.6295977,24.1740977 49.1921719,18.8933672 C44.858207,20.7735312 37.4184453,22.9738164 24.7039453,22.9738164 C11.9910586,22.9738164 4.55152734,20.7739922 0.2175625,18.8940586 Z" id="Path"></path>
            </g>
            <path d="M75.2100195,27.5497734 C75.2100195,34.3769492 71.9405898,39.9114258 59.0447109,39.9114258 C46.148832,39.9114258 42.8794023,34.3769492 42.8794023,27.5497734 C42.8794023,20.7225977 46.148832,15.1881211 59.0447109,15.1881211 C71.9405898,15.1881211 75.2100195,20.7228281 75.2100195,27.5497734 Z" id="Path" fill="#121212"></path>
            <g id="Path">
                <use fill="#121212" xlink:href="#path-1"></use>
                <use fill-opacity="0.1" fill="#FFFFFF" xlink:href="#path-1"></use>
            </g>
            <path d="M108.49132,45.6169102 C78.300375,17.5654062 72.2680859,15.7825 72.2680859,15.7825 C76.7055312,21.0125273 75.0014453,25.2218086 74.2591055,28.5006875 C70.4554492,45.2997852 77.5873047,55.6012773 81.8661875,58.9292461 C91.0227109,66.0507305 118.00023,74.8567109 118.00023,68.4381562 C118.00023,58.4537891 114.032711,50.765582 108.49132,45.6169102 Z" id="Path" fill="#FFEBD2"></path>
            <path d="M111.453535,48.8722812 C110.52659,47.7056484 109.549402,46.6003203 108.49109,45.6171406 C107.878734,45.0483437 107.292422,44.5074336 106.699887,43.9600703 C100.532313,42.6247344 92.2398164,40.8349141 87.9696914,39.9533711 C83.1648789,34.7205781 77.3105117,28.8408594 74.7827305,26.3259844 C74.6663438,26.8383164 74.5414297,27.3333633 74.4238906,27.8088203 C74.3695,28.0330664 74.306582,28.2893477 74.258875,28.5006875 C74.0851016,29.2683789 73.9578828,30.0077227 73.8285898,30.7482188 C81.0973437,38.0423242 90.2838281,47.6860586 91.5756055,50.2709961 C92.2783047,51.6763945 94.9153281,59.911043 96.2672578,66.3588672 C96.2704844,66.3600195 96.2737109,66.3614023 96.2769375,66.3625547 C97.6516836,66.8898672 99.0395664,67.388832 100.415465,67.8437773 C100.415695,67.8437773 100.415926,67.8437773 100.415926,67.8437773 C99.1810742,60.6626016 95.8588672,50.3313789 94.9777852,48.5696758 C94.5438125,47.7012695 93.525832,46.3424258 92.1736719,44.7187734 C99.1571055,46.1933125 107.294727,47.9603164 111.297738,48.8326406 C111.350055,48.8455469 111.401449,48.8591445 111.453535,48.8722812 Z" id="Path" fill="#FFDEB7"></path>
            <path d="M9.50891016,45.6169102 C39.6998555,17.5654063 45.7321445,15.7825 45.7321445,15.7825 C41.2946992,21.0125273 42.9987852,25.2218086 43.741125,28.5006875 C47.5447812,45.2997852 40.4129258,55.6012773 36.134043,58.9292461 C26.9775195,66.0507305 0,74.8569414 0,68.4383867 C0,58.4537891 3.96728906,50.765582 9.50891016,45.6169102 Z" id="Path" fill="#FFEBD2"></path>
            <path d="M6.54646484,48.8722812 C7.47341016,47.7056484 8.45059766,46.6003203 9.50891016,45.6171406 C10.1212656,45.0483437 10.7075781,44.5074336 11.3001133,43.9600703 C17.4676875,42.6247344 25.7601836,40.8349141 30.0303086,39.9533711 C34.8351211,34.7205781 40.6894883,28.8408594 43.2172695,26.3259844 C43.3336563,26.8383164 43.4585703,27.3333633 43.5761094,27.8088203 C43.6305,28.0330664 43.693418,28.2893477 43.741125,28.5006875 C43.9148984,29.2683789 44.0421172,30.0077227 44.1714102,30.7482188 C36.9026563,38.0423242 27.7161719,47.6860586 26.4243945,50.2709961 C25.7216953,51.6763945 23.0846719,59.911043 21.7327422,66.3588672 C21.7295156,66.3600195 21.7262891,66.3614023 21.7230625,66.3625547 C20.3483164,66.8898672 18.9604336,67.388832 17.5845352,67.8437773 L17.5838437,67.8437773 C18.8189258,60.6626016 22.1413633,50.3313789 23.0222148,48.5696758 C23.4561875,47.7012695 24.474168,46.3424258 25.8263281,44.7187734 C18.8428945,46.1933125 10.7052734,47.9603164 6.70226172,48.8326406 C6.64994531,48.8455469 6.59878125,48.8591445 6.54646484,48.8722812 Z" id="Path" fill="#FFDEB7"></path>
        </g>
    </g>
</svg>