<?xml version="1.0" encoding="UTF-8"?>
<svg width="136px" height="136px" viewBox="0 0 136 136" version="1.1" xmlns="http://www.w3.org/2000/svg" xmlns:xlink="http://www.w3.org/1999/xlink">
    <title>mini/dog</title>
    <g id="mini/dog" stroke="none" stroke-width="1" fill="none" fill-rule="evenodd">
        <g id="perro" transform="translate(9.000000, 30.000000)" fill-rule="nonzero">
            <path d="M58.9829453,3.89008203 C38.0414023,3.89008203 19.0035313,11.5052305 19.0035313,11.5052305 L19.0035313,53.3885469 C19.0035313,68.6188437 28.9985,75.52 39.9450742,83.8491406 L78.0208164,83.8491406 C88.9676211,75.52 98.9623594,68.6188437 98.9623594,53.3885469 L98.9623594,11.5052305 C98.9623594,11.5052305 79.9247188,3.89008203 58.9829453,3.89008203 Z" id="Path" fill="#AA968C"></path>
            <g id="Group" transform="translate(32.265625, 36.183594)" fill="#121212">
                <circle id="Oval" cx="5.77439453" cy="5.78292188" r="5.71124609"></circle>
                <circle id="Oval" cx="47.6602461" cy="5.78292188" r="5.71124609"></circle>
            </g>
            <path d="M64.6944219,97.1755352 L53.2716992,97.1755352 C44.8602813,97.1755352 38.0414023,90.3566563 38.0414023,81.9452383 L38.0414023,66.7149414 L79.9247188,66.7149414 L79.9247188,81.9452383 C79.9247188,90.3566563 73.1058398,97.1755352 64.6944219,97.1755352 Z" id="Path" fill="#AA968C"></path>
            <path d="M58.9829453,45.7733984 L58.9829453,45.7733984 C55.3938555,45.7733984 52.0479102,47.5625273 50.0679531,50.5558555 C45.1084961,58.0539258 36.1375,72.0357734 36.1375,75.0632109 C36.1375,79.2476016 43.7526484,93.8925078 58.9829453,85.523957 C74.2132422,93.8925078 81.8283906,79.2473711 81.8283906,75.0632109 C81.8283906,72.035543 72.857625,58.0539258 67.8979375,50.5558555 C65.9179805,47.5622969 62.5720352,45.7733984 58.9829453,45.7733984 Z" id="Path" fill="#D2BEAF"></path>
            <path d="M68.5019961,67.772793 C68.5019961,72.4457773 58.9831758,76.2342227 58.9831758,76.2342227 C58.9831758,76.2342227 49.4643555,72.4460078 49.4643555,67.772793 C49.4643555,63.0998086 53.7261836,61.0039258 58.9831758,61.0039258 C64.240168,61.0039258 68.5019961,63.0995781 68.5019961,67.772793 Z" id="Path" fill="#121212"></path>
            <g id="Group" fill="#8C7873">
                <path d="M32.9692461,12.4619062 L17.430582,51.3076445 C16.5319844,53.5540234 13.4319492,53.7586797 12.2457266,51.6501211 L1.08112891,31.8021523 C-0.716988281,28.6055508 -0.238535156,24.6126797 2.264125,21.9314062 L21.3771289,1.45310547 C23.1487422,-0.445265625 26.1837852,-0.359761719 27.8459258,1.63494531 L32.0535937,6.68428516 C33.3967656,8.29595312 33.748,10.5139844 32.9692461,12.4619062 Z" id="Path"></path>
                <path d="M85.0312148,12.4619063 L100.569648,51.307875 C101.468246,53.5542539 104.568281,53.7589102 105.754504,51.6503516 L116.918871,31.8023828 C118.716988,28.6057813 118.238535,24.6129102 115.735875,21.9316367 L96.6228711,1.45333594 C94.8512578,-0.445035156 91.8162148,-0.35953125 90.1540742,1.63517578 L85.9464063,6.68428516 C84.6036953,8.29595312 84.2522305,10.5139844 85.0312148,12.4619063 Z" id="Path"></path>
            </g>
        </g>
        <g id="red-hat-1" transform="translate(32.000000, 6.000000)" fill-rule="nonzero">
            <path d="M48.4954861,31.7013889 C53.2697917,31.7013889 60.1829861,30.7083333 60.1829861,25.0288194 C60.1985257,24.5903508 60.160042,24.1516364 60.0684028,23.7225694 L57.2229167,11.3666667 C56.5659722,8.64722222 55.9892361,7.41354167 51.2149306,5.02638889 C47.5138889,3.13194444 39.4357639,0 37.0486111,0 C34.8333333,0 34.1840278,2.86458333 31.5333333,2.86458333 C28.9819444,2.86458333 27.0875,0.725694444 24.6965278,0.725694444 C22.4048611,0.725694444 20.9152778,2.29166667 19.7618056,5.5 C19.7618056,5.5 16.5534722,14.5597222 16.1333333,15.8736111 C16.0703432,16.1152811 16.0445841,16.3651453 16.0569444,16.6145833 C16.0569444,20.1361111 29.9215278,31.6822917 48.4954861,31.6822917 M60.9201389,27.3357639 C61.5809028,30.4677083 61.5809028,30.7923611 61.5809028,31.2048611 C61.5809028,36.5520833 55.5690972,39.5197917 47.6666667,39.5197917 C29.8069444,39.53125 14.1625,29.0659722 14.1625,22.1527778 C14.1597391,21.1889402 14.3547306,20.2347821 14.7354167,19.3493056 C8.32638889,19.6701389 0,20.8159722 0,28.1569444 C0,40.1805556 28.4930556,55 51.046875,55 C68.3413194,55 72.703125,47.1777778 72.703125,41.0017361 C72.703125,36.1434028 68.5017361,30.628125 60.9277778,27.3357639" id="Shape" fill="#EE0000"></path>
            <path d="M60.9201389,27.3357639 C61.5809028,30.4677083 61.5809028,30.7923611 61.5809028,31.2048611 C61.5809028,36.5520833 55.5690972,39.5198011 47.6666667,39.5198011 C29.8069444,39.53125 14.1624711,29.0659722 14.1624711,22.1527778 C14.1597391,21.1889402 14.3547306,20.2347821 14.7354167,19.3493056 L16.1371528,15.8888889 C16.0731209,16.1252451 16.0447984,16.3698488 16.053125,16.6145833 C16.053125,20.1361111 29.9177083,31.6822917 48.4954861,31.6822917 C53.2697917,31.6822917 60.1829861,30.696875 60.1829861,25.0135417 C60.1988404,24.5738007 60.160355,24.1337841 60.0684028,23.7034722 L60.9201389,27.3357639 Z" id="Path" fill="#000000"></path>
        </g>
    </g>
</svg>