<?xml version="1.0" encoding="UTF-8"?>
<svg width="136px" height="136px" viewBox="0 0 136 136" version="1.1" xmlns="http://www.w3.org/2000/svg" xmlns:xlink="http://www.w3.org/1999/xlink">
    <title>mini/fish</title>
    <g id="mini/fish" stroke="none" stroke-width="1" fill="none" fill-rule="evenodd">
        <g id="pez-de-colores" transform="translate(69.500000, 76.000000) rotate(-30.000000) translate(-69.500000, -76.000000) translate(10.000000, 41.000000)" fill-rule="nonzero">
            <g id="Group" fill="#FFD068">
                <path d="M0,31.0125664 L14.75,31.0125664 C31.0717969,21.1390547 46.1843242,18.3582187 46.1843242,18.3582187 C28.0491992,18.5999805 12.3319219,22.5495234 0,31.0125664 Z" id="Path"></path>
                <path d="M83.1803203,9.73384766 C82.1326094,8.68613672 75.4425625,0.061765625 63.8361563,0.061765625 C63.8361563,0.061765625 61.25675,3.93064453 65.7704805,7.79952344 L83.1803203,9.73384766 Z" id="Path"></path>
            </g>
            <path d="M83.1803203,5.86496875 C69.6393594,5.86496875 50.2949648,17.4716055 50.2949648,17.4716055 C30.9508008,17.4716055 9.83341016,30.6899102 1.6925625,38.9920859 C1.6925625,38.9920859 13.2183047,34.8814453 21.2787188,34.8814453 C29.1372422,34.8814453 34.4852695,37.4004687 36.7542344,40.6846484 C41.3483984,47.3341328 40.7955039,61.5093437 36.5929063,69.5397969 C36.5929063,69.5397969 50.1338672,62.6888828 50.1338672,46.4878516 C50.1338672,38.2329219 51.4420078,26.1088828 54.8623945,23.7230703 C60.6499258,30.5984141 71.7463047,40.6846484 87.0491992,40.6846484 C110.262242,40.6846484 118,25.2093633 118,25.2093633 C118,25.2093633 104.459039,5.86496875 83.1803203,5.86496875 Z" id="Path" fill="#FEB01B"></path>
            <g id="Group" transform="translate(65.683594, 13.597656)" fill="#FFD068">
                <path d="M29.1033633,7.74282812 C27.1690391,9.67715234 21.3679102,11.611707 17.5001836,11.611707 C17.2266172,11.611707 19.8207734,9.07286328 19.8207734,5.80850391 C19.8207734,2.54414453 17.2266172,0.00530078125 17.5001836,0.00530078125 C21.3679102,0.00530078125 25.2344844,0.00530078125 29.1033633,3.87417969 L29.1033633,7.74282812 L29.1033633,7.74282812 Z" id="Path"></path>
                <path d="M25.2344844,15.4805859 C19.1632461,18.5160898 17.4967266,25.152668 8.24525,24.5094297 C8.85645312,24.753957 9.47941016,24.982582 10.1118164,25.1978398 C6.09336328,27.4645 0.0675273438,30.8777422 0.0870695434,30.9558711 C2.02144141,38.6936289 9.75919922,38.6936289 9.75919922,38.6936289 L16.5845312,26.7493555 C18.1286719,26.966918 19.7219023,27.0872227 21.3656055,27.0872227 C44.5786484,27.0869922 52.3164062,11.611707 52.3164062,11.611707 C36.8408906,19.3492344 32.9722422,11.611707 25.2344844,15.4805859 Z" id="Path"></path>
            </g>
            <circle id="Oval" fill="#121212" cx="104.459039" cy="21.339793" r="2.90160156"></circle>
            <path d="M73.9281523,38.1070859 C65.9315781,35.0427734 71.8154453,23.1139414 63.8359258,19.4059297 C59.9131172,17.5831523 56.098168,21.3402539 54.8621641,23.7230703 C58.6515312,28.5331836 64.2950195,34.4154375 73.9281523,38.1070859 Z" id="Path" fill="#FF8A2F"></path>
            <path d="M42.5574375,25.2093633 C15.7172773,28.3527266 12.8156758,33.6724063 1.6925625,38.9920859 C1.6925625,38.9920859 13.2183047,34.8814453 21.2787187,34.8814453 C29.1372422,34.8814453 34.4852695,37.4004688 36.7542344,40.6846484 C41.3483984,47.3341328 40.7955039,61.5093437 36.5929063,69.5397969 C52.2295195,58.0944883 42.5574375,25.2093633 42.5574375,25.2093633 Z" id="Path" fill="#FFD068"></path>
            <path d="M95.8747695,25.2095937 C95.8747695,19.8415156 98.577707,14.9966016 102.894617,11.5893516 C101.735129,10.8977148 100.51641,10.2390352 99.241457,9.63059766 C94.7622969,13.6799336 92.0058906,19.1708516 92.0058906,25.2098242 C92.0058906,30.5970313 94.1999531,35.5477305 97.8531133,39.4281328 C99.3477031,39.058 100.744574,38.6182656 102.049719,38.1273672 C98.2278555,34.7722031 95.8747695,30.2181406 95.8747695,25.2095937 Z" id="Path" fill="#FF8A2F"></path>
        </g>
    </g>
</svg>