<?xml version="1.0" encoding="UTF-8"?>
<svg width="136px" height="136px" viewBox="0 0 136 136" version="1.1" xmlns="http://www.w3.org/2000/svg" xmlns:xlink="http://www.w3.org/1999/xlink">
    <title>mini/frog</title>
    <g id="mini/frog" stroke="none" stroke-width="1" fill="none" fill-rule="evenodd">
        <g id="Group-3" transform="translate(9.000000, 13.000000)" fill-rule="nonzero">
            <g id="rana" transform="translate(0.000000, 34.000000)">
                <path d="M3.80642187,43.9674453 C3.80642187,55.0693555 21.181,76.3222617 59,76.3222617 C96.819,76.3222617 114.193578,55.0695859 114.193578,43.9674453 L3.80642187,43.9674453 Z" id="Path" fill="#BEE178"></path>
                <path d="M59.0002305,44.9190508 L3.80642187,44.9190508 C3.80642187,44.9190508 3.80642187,53.4835 13.3224766,53.4835 C20.9353203,53.4835 39.9676602,49.2011602 59,49.2011602 C78.0323398,49.2011602 97.0646797,53.4835 104.677523,53.4835 C114.193578,53.4835 114.193578,44.9190508 114.193578,44.9190508 L59.0002305,44.9190508 Z" id="Path" fill="#D2F0A0"></path>
                <path d="M115.33993,35.2149336 C106.580734,28.7415273 87.9862852,17.9355391 78.0323398,13.8963437 C73.5918984,12.0945391 70.4194961,9.7091875 59,9.7091875 C47.5805039,9.7091875 44.4081016,12.0943086 39.9676602,13.8963437 C30.0137148,17.9355391 11.4192656,28.7415273 2.66007031,35.2149336 C1.15510937,36.3271758 0,38.1110039 0,40.2707266 C0,43.3633867 2.08919922,45.8706562 4.66653125,45.8706562 L113.333469,45.8706562 C115.91057,45.8706562 118,43.3633867 118,40.2707266 C118,38.1110039 116.845121,36.3271758 115.33993,35.2149336 Z" id="Path" fill="#82C35F"></path>
                <g id="Group" transform="translate(47.476562, 30.421875)" fill="#5A9646">
                    <path d="M2.00738281,5.93272656 C0.955292969,5.93272656 0.104171875,5.08160547 0.104171875,4.02951562 L0.104171875,2.12630469 C0.104171875,1.07421484 0.955292969,0.22309375 2.00738281,0.22309375 C3.05947266,0.22309375 3.91059375,1.07421484 3.91059375,2.12630469 L3.91059375,4.02951562 C3.91059375,5.081375 3.05947266,5.93272656 2.00738281,5.93272656 Z" id="Path"></path>
                    <path d="M21.0397227,5.93272656 C19.9876328,5.93272656 19.1365117,5.08160547 19.1365117,4.02951562 L19.1365117,2.12630469 C19.1365117,1.07421484 19.9876328,0.22309375 21.0397227,0.22309375 C22.0918125,0.22309375 22.9429336,1.07421484 22.9429336,2.12630469 L22.9429336,4.02951562 C22.9429336,5.081375 22.0918125,5.93272656 21.0397227,5.93272656 Z" id="Path"></path>
                </g>
                <path d="M21.8871563,31.7526016 C38.0646797,31.7526016 43.4839219,22.9302578 45.2585313,18.6817969 C45.9213594,17.0950195 45.794832,15.2971328 44.9261953,13.8131445 C42.0437227,8.88802734 33.7756562,-2.57295313 20.7832109,0.806640625 C17.397625,1.68726172 15.1786719,4.94977734 15.3920859,8.44160938 C15.881832,16.4520117 17.7050703,31.7526016 21.8871563,31.7526016 Z" id="Path" fill="#96CD78"></path>
                <path d="M34.2580273,24.9351055 C34.2580273,24.9351055 28.7194023,31.7523711 21.8869258,31.7523711 C15.0544492,31.7523711 9.51582422,25.3614727 9.51582422,17.4780586 C9.51582422,9.59464453 15.0544492,3.20374609 21.8869258,3.20374609 C28.5483945,3.20374609 34.2580273,17.0516914 34.2580273,24.9351055 Z" id="Path" fill="#73AF55"></path>
                <path d="M16.1775234,11.6126289 C14.0770313,11.6126289 12.1009922,11.8626875 10.3683281,12.3005781 C9.82511328,13.9074063 9.51605469,15.64975 9.51605469,17.4782891 C9.51605469,19.3070586 9.82511328,21.0491719 10.3683281,22.656 C12.1009922,23.0938906 14.0770313,23.3439492 16.1775234,23.3439492 C23.0097695,23.3439492 26.6451836,20.7177578 26.6451836,17.4782891 C26.6451836,14.2388203 23.0097695,11.6126289 16.1775234,11.6126289 Z" id="Path" fill="#121212"></path>
                <path d="M96.1130742,31.7526016 C79.9355508,31.7526016 74.5163086,22.9302578 72.7416992,18.6817969 C72.0788711,17.0950195 72.2053984,15.2971328 73.0740352,13.8131445 C75.9565078,8.88825781 84.2245742,-2.57272266 97.2170195,0.806871094 C100.602605,1.68749219 102.821559,4.95000781 102.608145,8.44183984 C102.118168,16.4520117 100.29516,31.7526016 96.1130742,31.7526016 Z" id="Path" fill="#96CD78"></path>
                <path d="M83.7422031,24.9351055 C83.7422031,24.9351055 89.2808281,31.7523711 96.1133047,31.7523711 C102.945781,31.7523711 108.484406,25.3614727 108.484406,17.4780586 C108.484406,9.59464453 102.945781,3.20374609 96.1133047,3.20374609 C89.4518359,3.20374609 83.7422031,17.0516914 83.7422031,24.9351055 Z" id="Path" fill="#73AF55"></path>
                <path d="M101.822707,11.6126289 C103.923199,11.6126289 105.899238,11.8626875 107.631902,12.3005781 C108.174887,13.9074063 108.484176,15.64975 108.484176,17.4782891 C108.484176,19.3070586 108.175117,21.0491719 107.631902,22.656 C105.899238,23.0938906 103.923199,23.3439492 101.822707,23.3439492 C94.9904609,23.3439492 91.3550469,20.7177578 91.3550469,17.4782891 C91.3550469,14.2388203 94.9904609,11.6126289 101.822707,11.6126289 Z" id="Path" fill="#121212"></path>
            </g>
            <g id="red-hat-1" transform="translate(22.000000, 0.000000)">
                <path d="M48.4954861,31.7013889 C53.2697917,31.7013889 60.1829861,30.7083333 60.1829861,25.0288194 C60.1985257,24.5903508 60.160042,24.1516364 60.0684028,23.7225694 L57.2229167,11.3666667 C56.5659722,8.64722222 55.9892361,7.41354167 51.2149306,5.02638889 C47.5138889,3.13194444 39.4357639,0 37.0486111,0 C34.8333333,0 34.1840278,2.86458333 31.5333333,2.86458333 C28.9819444,2.86458333 27.0875,0.725694444 24.6965278,0.725694444 C22.4048611,0.725694444 20.9152778,2.29166667 19.7618056,5.5 C19.7618056,5.5 16.5534722,14.5597222 16.1333333,15.8736111 C16.0703432,16.1152811 16.0445841,16.3651453 16.0569444,16.6145833 C16.0569444,20.1361111 29.9215278,31.6822917 48.4954861,31.6822917 M60.9201389,27.3357639 C61.5809028,30.4677083 61.5809028,30.7923611 61.5809028,31.2048611 C61.5809028,36.5520833 55.5690972,39.5197917 47.6666667,39.5197917 C29.8069444,39.53125 14.1625,29.0659722 14.1625,22.1527778 C14.1597391,21.1889402 14.3547306,20.2347821 14.7354167,19.3493056 C8.32638889,19.6701389 0,20.8159722 0,28.1569444 C0,40.1805556 28.4930556,55 51.046875,55 C68.3413194,55 72.703125,47.1777778 72.703125,41.0017361 C72.703125,36.1434028 68.5017361,30.628125 60.9277778,27.3357639" id="Shape" fill="#EE0000"></path>
                <path d="M60.9201389,27.3357639 C61.5809028,30.4677083 61.5809028,30.7923611 61.5809028,31.2048611 C61.5809028,36.5520833 55.5690972,39.5198011 47.6666667,39.5198011 C29.8069444,39.53125 14.1624711,29.0659722 14.1624711,22.1527778 C14.1597391,21.1889402 14.3547306,20.2347821 14.7354167,19.3493056 L16.1371528,15.8888889 C16.0731209,16.1252451 16.0447984,16.3698488 16.053125,16.6145833 C16.053125,20.1361111 29.9177083,31.6822917 48.4954861,31.6822917 C53.2697917,31.6822917 60.1829861,30.696875 60.1829861,25.0135417 C60.1988404,24.5738007 60.160355,24.1337841 60.0684028,23.7034722 L60.9201389,27.3357639 Z" id="Path" fill="#000000"></path>
            </g>
        </g>
    </g>
</svg>