<?xml version="1.0" encoding="UTF-8"?>
<svg width="136px" height="136px" viewBox="0 0 136 136" version="1.1" xmlns="http://www.w3.org/2000/svg" xmlns:xlink="http://www.w3.org/1999/xlink">
    <title>mini/rabbit</title>
    <g id="mini/rabbit" stroke="none" stroke-width="1" fill="none" fill-rule="evenodd">
        <g id="conejo" transform="translate(39.000000, 10.000000)" fill-rule="nonzero">
            <path d="M49.5150586,68.5116758 C48.9252891,64.9730586 47.6019375,61.9850312 45.7768555,59.5429844 C53.5371992,37.7136758 54.9315352,12.3840078 55.1686875,2.00761328 C55.2064844,0.358148437 53.3000469,-0.596222656 51.9969766,0.415304687 C34.6094922,13.9143203 30.0323828,41.3560039 28.9150703,51.3936094 C28.8026016,51.3919961 28.6903633,51.3809336 28.5778945,51.3809336 C28.4654258,51.3809336 28.3531875,51.3919961 28.2407187,51.3936094 C27.1234062,41.3560039 22.5462969,13.9143203 5.1588125,0.415304688 C3.85551172,-0.596453125 1.94930469,0.357917969 1.98710156,2.00761328 C2.22425391,12.3837773 3.61858984,37.7136758 11.3789336,59.5429844 C9.55362109,61.9852617 8.2305,64.9728281 7.64073047,68.5116758 C4.80711719,85.513125 0.0271953125,91.3525117 0.0271953125,100.87041 C0.0271953125,110.386695 6.65178906,115.978559 19.4508711,115.978559 L28.578125,116.096559 L37.7053789,115.978328 C50.5046914,115.978328 57.1290547,110.386465 57.1290547,100.87018 C57.1290547,91.3522812 52.3484414,85.513125 49.5150586,68.5116758 Z" id="Path" fill="#937658"></path>
            <path d="M34.2877578,118 L22.8673398,118 C19.7267422,118 17.1570156,115.430504 17.1570156,112.289676 L17.1570156,112.289676 C17.1570156,109.149078 19.7265117,106.579352 22.8673398,106.579352 L34.2877578,106.579352 C37.4283555,106.579352 39.998082,109.148848 39.998082,112.289676 L39.998082,112.289676 C39.998082,115.430273 37.4283555,118 34.2877578,118 Z" id="Path" fill="#E1BE9B"></path>
            <path d="M38.0946406,83.7385156 C36.8256797,77.5525039 33.1775898,76.1249805 28.5776641,76.1249805 C23.9777383,76.1249805 20.3296484,77.5525039 19.0606875,83.7385156 C17.2902266,92.3700312 12.272,98.0711367 11.5372656,104.911449 C10.974,110.155305 14.2390508,115.166387 19.4504102,115.978098 C22.460332,116.447102 25.2312578,115.488352 27.2464766,113.691848 C28.0203906,113.001824 29.135168,113.001824 29.909082,113.691848 C31.9240703,115.488352 34.6949961,116.447102 37.7051484,115.978098 C42.9165078,115.166387 46.1815586,110.155305 45.618293,104.911449 C44.8833281,98.0713672 39.8651016,92.3700312 38.0946406,83.7385156 Z" id="Path" fill="#C59F7E"></path>
            <path d="M35.8676211,101.716922 C35.2840742,100.842293 34.1036133,100.602375 33.2280625,101.188918 L28.5737461,104.29218 L23.9194297,101.188918 C23.0401914,100.602375 21.8618047,100.842293 21.2798711,101.716922 C20.6963242,102.591551 20.9323242,103.773855 21.807875,104.35648 L27.5181992,108.163363 C27.8378594,108.376316 28.2061484,108.483023 28.574207,108.483023 C28.9422656,108.483023 29.3103242,108.376086 29.6302148,108.163363 L35.3405391,104.35648 C36.215168,103.773625 36.4513984,102.591551 35.8676211,101.716922 Z" id="Path" fill="#937658"></path>
            <g id="Group" transform="translate(5.531250, 66.605469)" fill="#121212">
                <ellipse id="Oval" cx="4.01292188" cy="5.7119375" rx="3.80688281" ry="5.71032422"></ellipse>
                <ellipse id="Oval" cx="42.0810586" cy="5.7119375" rx="3.80688281" ry="5.71032422"></ellipse>
            </g>
            <g id="Group" transform="translate(1.843750, 0.000000)" fill="#C59F7E">
                <path d="M13.5612422,55.5600234 C17.1544805,22.7345898 7.94448828,6.60108594 2.25813281,0.00553125 C1.17608203,-0.0721367187 0.114542969,0.77253125 0.142890625,2.00738281 C0.380042969,12.3814727 1.79788672,37.6867109 9.55569531,59.5116406 C10.7091914,57.9751055 12.0648086,56.6609727 13.5612422,55.5600234 Z" id="Path"></path>
                <path d="M39.906125,55.5600234 C36.3128867,22.7345898 45.5228789,6.60108594 51.2094648,0.00553125 C52.2915156,-0.0721367188 53.3530547,0.77253125 53.324707,2.00738281 C53.0875547,12.3814727 51.6697109,37.6867109 43.9119023,59.5116406 C42.7586367,57.9751055 41.4027891,56.6609727 39.906125,55.5600234 Z" id="Path"></path>
            </g>
        </g>
    </g>
</svg>