<?xml version="1.0" encoding="UTF-8"?>
<svg width="136px" height="136px" viewBox="0 0 136 136" version="1.1" xmlns="http://www.w3.org/2000/svg" xmlns:xlink="http://www.w3.org/1999/xlink">
    <title>mini/tiger</title>
    <g id="mini/tiger" stroke="none" stroke-width="1" fill="none" fill-rule="evenodd">
        <g id="tigre" transform="translate(18.000000, 15.000000)" fill-rule="nonzero">
            <g id="Group" transform="translate(3.318750, 0.000000)" fill="#FF8A2F">
                <path d="M28.041157,13.9279646 C21.0773821,13.9279646 19.3362828,0 10.6314086,0 C5.126017,0 0.185435164,3.48199115 0.185435164,10.4459735 C0.185435164,17.4099558 12.3723005,20.8919469 8.89030934,33.0788123 L28.041157,13.9279646 Z" id="Path"></path>
                <path d="M66.3428522,13.9279646 C73.3068346,13.9279646 75.0477264,0 83.752808,0 C89.2581996,0 94.1987815,3.48199115 94.1987815,10.4459735 C94.1987815,17.4099558 82.0119161,20.8919469 85.4939073,33.0788123 L66.3428522,13.9279646 Z" id="Path"></path>
            </g>
            <g id="Group" transform="translate(0.000000, 37.750783)" fill="#FFD5A1">
                <path d="M66.279796,58.003248 C66.279796,63.7724803 62.1489892,68.4492215 50.6109395,68.4492215 C39.0728898,68.4492215 34.942083,63.7724803 34.942083,58.003248 L34.942083,56.2623561 L66.1796112,56.2623561 L66.279796,58.003248 Z" id="Path"></path>
                <path d="M92.7939131,0.188753914 C99.9387673,11.8672282 101.0995,21.442652 101.0995,21.442652 L97.617509,21.442652 C97.617509,21.442652 101.0995,30.0388371 101.0995,35.3706166 L95.8766171,33.6297248 C95.8766171,33.6297248 99.3586082,41.4640493 99.3586082,47.5576894 C99.3586082,47.6665859 94.1357252,45.8167975 94.1357252,45.8167975 C94.1357252,45.8167975 96.7471667,51.6926446 95.8766171,54.5216717 C95.8446741,54.6255901 90.6537341,52.7807798 90.6537341,52.7807798 C90.6537341,52.7807798 92.1770404,56.8431374 90.6537341,59.7447621 L81.9488599,56.262771 C81.9488599,56.262771 80.3214278,61.5895724 80.207968,61.485654 C76.3994948,58.0036629 71.5030939,56.262771 71.5030939,56.262771 L29.7192,56.262771 C29.7192,56.262771 24.8225916,58.0036629 21.0143258,61.485654 C20.9006586,61.5893649 19.273434,56.262771 19.273434,56.262771 L10.5685598,59.7447621 C9.04525348,56.8431374 10.5685598,52.7807798 10.5685598,52.7807798 C10.5685598,52.7807798 5.37761974,54.6257975 5.34567677,54.5216717 C4.47512713,51.6926446 7.08656864,45.8167975 7.08656864,45.8167975 C7.08656864,45.8167975 1.86368562,47.6665859 1.86368562,47.5576894 C1.86368562,41.4642567 5.34567677,33.6297248 5.34567677,33.6297248 L0.122378911,35.3706166 C0.122378911,30.0388371 3.60478491,21.442652 3.60478491,21.442652 L0.122378911,21.442652 C0.122378911,21.442652 1.28290435,11.8672282 8.42796596,0.188753914 L92.7939131,0.188753914 Z" id="Path"></path>
            </g>
            <ellipse id="Oval" fill="#FEB01B" cx="50.5107547" cy="47.8771191" rx="43.5245783" ry="40.9131368"></ellipse>
            <g id="Group" transform="translate(17.423438, 36.506251)" fill="#FFF5E9">
                <ellipse id="Oval" transform="translate(12.470406, 12.045346) rotate(-127.172429) translate(-12.470406, -12.045346) " cx="12.4704059" cy="12.0453456" rx="7.83391295" ry="9.57496686"></ellipse>
                <ellipse id="Oval" transform="translate(53.711428, 12.047507) rotate(127.172429) translate(-53.711428, -12.047507) " cx="53.7114279" cy="12.0475069" rx="7.83391295" ry="9.57496686"></ellipse>
            </g>
            <path d="M50.5122067,53.9705518 L50.5095102,53.9705518 C44.5542205,53.9705518 39.0919726,57.7597347 36.293644,63.8253728 C32.5262404,71.9924021 27.877916,82.9073564 27.877916,87.0491566 L73.1433861,87.0491566 C73.1433861,82.9075638 68.4952691,71.9924021 64.727658,63.8253728 C61.9297443,57.7595273 56.467289,53.9705518 50.5122067,53.9705518 Z" id="Path" fill="#FF8A2F"></path>
            <path d="M60.7320903,76.6031831 C56.7095577,76.6031831 53.0875568,77.8477144 50.5107547,79.8364754 C47.9341601,77.8477144 44.3119518,76.6031831 40.2894192,76.6031831 C32.4733478,76.6031831 26.1370241,81.2799243 26.1370241,87.0491566 C26.1370241,92.8183888 32.4733478,97.49513 40.2894192,97.49513 C43.5517506,97.49513 46.5508636,96.6764359 48.9422305,95.3059995 C49.9303883,94.7397377 51.0904989,94.7397377 52.0788642,95.3059995 C54.4702311,96.6764359 57.4693441,97.49513 60.7316755,97.49513 C68.5477469,97.49513 74.8840706,92.8183888 74.8840706,87.0491566 C74.8840706,81.2799243 68.5483691,76.6031831 60.7320903,76.6031831 Z" id="Path" fill="#FEB661"></path>
            <g id="Group" transform="translate(9.541407, 6.844922)">
                <path d="M32.6365888,70.9364173 L39.5810734,80.111102 C40.2775961,81.0314329 41.6606852,81.0314329 42.3572079,80.111102 L49.3016926,70.9364173 C50.1695457,69.7897891 49.3516813,68.1447261 47.9134179,68.1447261 L46.9800194,68.1447261 C46.4573163,68.1447261 45.9375171,68.2231316 45.43846,68.3774535 L42.5104927,69.2820203 C41.5061559,69.5923235 40.4315032,69.5923235 39.4271664,69.2820203 L36.4991991,68.3774535 C35.9997272,68.2231316 35.4801354,68.1447261 34.9576397,68.1447261 L34.0244486,68.1447261 C32.5866001,68.1447261 31.7687356,69.7897891 32.6365888,70.9364173 Z" id="Path" fill="#121212"></path>
                <circle id="Oval" fill="#464655" cx="20.0776086" cy="41.9025392" r="3.48199115"></circle>
                <circle id="Oval" fill="#464655" cx="61.861295" cy="41.9025392" r="3.48199115"></circle>
                <path d="M4.01527282,62.6416162 L13.5994084,54.8000319 C14.4315849,54.1190658 13.8323431,52.7753869 12.7695134,52.939665 L0.0176308601,54.9101729 C1.06262231,57.6342445 2.40982744,60.2210028 4.01527282,62.6416162 Z" id="Path" fill="#121212"></path>
                <path d="M13.1698376,72.5099197 L18.3661707,58.6526859 C18.7648355,57.5896488 17.4340167,56.732789 16.631294,57.5357191 L7.25935107,66.907662 C9.03426012,68.9482785 11.0136872,70.8252391 13.1698376,72.5099197 Z" id="Path" fill="#121212"></path>
                <path d="M34.9308822,15.794969 L33.5550529,0.722242997 C31.8736911,0.993550821 30.2255168,1.35363521 28.6161304,1.80104421 L33.0823384,16.162728 C33.4198138,17.2485815 35.0341783,16.9274925 34.9308822,15.794969 Z" id="Path" fill="#121212"></path>
                <path d="M48.3838508,0.722242997 L47.0080214,15.794969 C46.9047253,16.9274925 48.5188824,17.2483741 48.8567726,16.1625206 L53.3229806,1.80083679 C51.7133868,1.35384263 50.0652125,0.993550821 48.3838508,0.722242997 Z" id="Path" fill="#121212"></path>
                <path d="M57.9509777,3.35110795 L53.6969623,13.1930689 C53.2537017,14.2189775 54.6405244,15.0324861 55.3196237,14.1447205 L62.1085419,5.26893068 C60.763411,4.56535565 59.3788699,3.92027359 57.9509777,3.35110795 Z" id="Path" fill="#121212"></path>
                <path d="M28.2419414,13.1930689 L23.987926,3.35110795 C22.5600337,3.92048102 21.1754926,4.56514823 19.8303617,5.2691381 L26.61928,14.1447205 C27.2983792,15.0324861 28.6854093,14.2189775 28.2419414,13.1930689 Z" id="Path" fill="#121212"></path>
                <path d="M44.4347455,0.25989962 C43.2901916,0.175271491 42.1371333,0.119060161 40.9693481,0.119060161 C39.8015629,0.119060161 38.6485047,0.175271491 37.5039507,0.25989962 L40.0280676,21.7156192 C40.1593657,22.831549 41.7791231,22.831549 41.9104212,21.7156192 L44.4347455,0.25989962 Z" id="Path" fill="#121212"></path>
                <path d="M78.1706703,62.6416162 L68.5865348,54.8000319 C67.7543582,54.1190658 68.3536,52.7753869 69.4164297,52.939665 L82.1683122,54.9101729 C81.1235282,57.6342445 79.7761157,60.2210028 78.1706703,62.6416162 Z" id="Path" fill="#121212"></path>
                <path d="M69.0161055,72.5099197 L63.8197725,58.6526859 C63.4211076,57.5896488 64.7519264,56.732789 65.5546491,57.5357191 L74.926592,66.907662 C73.151683,68.9482785 71.1724634,70.8252391 69.0161055,72.5099197 Z" id="Path" fill="#121212"></path>
            </g>
        </g>
    </g>
</svg>