<?xml version="1.0" encoding="UTF-8"?>
<svg width="136px" height="136px" viewBox="0 0 136 136" version="1.1" xmlns="http://www.w3.org/2000/svg" xmlns:xlink="http://www.w3.org/1999/xlink">
    <title>mini/wolf</title>
    <g id="mini/wolf" stroke="none" stroke-width="1" fill="none" fill-rule="evenodd">
        <g id="lobo" transform="translate(14.000000, 9.000000)" fill-rule="nonzero">
            <path d="M65.6384219,108.635133 L43.139832,108.635133 C43.139832,108.635133 42.9669805,108.64873 43.139832,110.976465 C43.4076367,114.585836 48.1764961,118.00023 54.3890117,118.00023 L54.4150547,118.00023 C60.5992227,118.00023 65.345957,114.585836 65.6126094,110.976465 C65.7845391,108.6485 65.6384219,108.635133 65.6384219,108.635133 Z" id="Path" fill="#FFDEB7"></path>
            <g id="Group" transform="translate(18.667969, 3.687500)" fill="#C3B9B1">
                <path d="M58.3445469,9.79653516 C54.0686602,14.488418 54.5805313,21.8071836 59.4265977,25.9076836 L70.8716758,35.59175 C72.2616328,14.9823125 70.2715352,2.21503516 68.550625,0.146347656 C66.9131445,0.868175781 62.882707,4.81702734 58.3445469,9.79653516 Z" id="Path"></path>
                <path d="M2.8946875,0.146347656 C1.17331641,2.21503516 -0.81678125,14.9823125 0.573636719,35.59175 L12.0187148,25.9076836 C16.8647813,21.8074141 17.3764219,14.4886484 13.1007656,9.79653516 C8.56283594,4.81702734 4.53216797,0.868175781 2.8946875,0.146347656 Z" id="Path"></path>
            </g>
            <path d="M74.9940703,104.889094 C79.0913438,95.6410742 91.8512461,97.3970156 91.8512461,97.3970156 L91.8512461,91.777957 L103.089363,99.2700352 L103.089363,86.1588984 L108.708422,88.031918 C108.708422,79.7898945 104.993957,55.1857422 91.0153359,37.1617031 C72.5501797,13.352668 36.2313008,13.352668 17.7661445,37.1617031 C3.78752344,55.1855117 0.0730585938,79.7896641 0.0730585938,88.031918 L5.69211719,86.1588984 L5.69211719,99.2700352 L16.9302344,91.777957 L16.9302344,97.3970156 C16.9302344,97.3970156 29.6901367,95.6410742 33.7874102,104.889094 L41.2794883,103.016074 L63.7557227,103.016074 L74.9940703,104.889094 Z" id="Path" fill="#FFEBD2"></path>
            <g id="Group" transform="translate(0.000000, 52.316406)" fill="#C3B9B1">
                <path d="M33.9826172,26.1054258 L50.6448164,48.8266484 L50.6448164,0.128140625 L8.70572656,0.128140625 C2.08966016,14.7569141 0.0732890625,29.6567188 0.0732890625,35.7155117 L5.69234766,33.8424922 L5.69234766,46.9536289 C11.0830117,35.0946289 18.3347109,28.1999258 23.5195664,24.4836172 C26.8807227,22.0742969 31.5368828,22.770543 33.9826172,26.1054258 Z" id="Path"></path>
                <path d="M74.7988633,26.1054258 L58.1366641,48.8266484 L58.1366641,0.128140625 L100.075754,0.128140625 C106.69159,14.7569141 108.708191,29.6567188 108.708191,35.7155117 L103.089133,33.8424922 L103.089133,46.9536289 C97.6986992,35.0946289 90.4467695,28.1999258 85.2619141,24.4836172 C81.9005273,22.0742969 77.2443672,22.770543 74.7988633,26.1054258 Z" id="Path"></path>
            </g>
            <path d="M63.7559531,71.1747422 L54.3908555,71.1747422 L45.0257578,71.1747422 C43.0356602,81.9242656 37.5336797,89.8666797 37.5336797,101.989797 C37.5336797,109.407664 43.1527383,112.265477 46.8987773,112.265477 C50.6448164,112.265477 54.3908555,110.508152 54.3908555,110.508152 C54.3908555,110.508152 58.1368945,112.265477 61.8829336,112.265477 C65.6289727,112.265477 71.2480312,109.407664 71.2480312,101.989797 C71.2480312,89.8666797 65.7458203,81.9242656 63.7559531,71.1747422 Z" id="Path" fill="#FFEBD2"></path>
            <path d="M93.2264531,40.1928281 C94.3827148,23.3794414 93.622168,5.27473828 89.8420195,1.16525 C88.9563281,0.202121094 88.0164766,0 87.3852227,0 C83.6518594,0 73.5057031,11.4337852 66.857832,19.4400391 C66.8195742,19.4269023 66.7813164,19.4139961 66.7430586,19.4010898 C58.7543203,16.6999961 50.0269297,16.6999961 42.0381914,19.4010898 L41.923418,19.4400391 C35.2755469,11.4337852 25.1293906,0 21.3960273,0 C20.7650039,0 19.8246914,0.202121094 18.9394609,1.16525 C15.1593125,5.27496875 14.3985352,23.3792109 15.5550273,40.1928281 C3.39319141,57.8441992 0.0730585937,80.2432266 0.0730585937,88.031918 C10.0926875,65.1297773 24.4877656,57.5420547 30.7191797,55.2369063 C32.4751211,54.5874453 34.3278594,54.2829961 36.2029531,54.3205625 C39.1619414,54.379793 41.5827852,56.7234297 41.9526875,59.6596016 L46.8985469,98.8950625 L61.8827031,98.8950625 L66.828332,59.6596016 C67.1984648,56.7234297 69.6193086,54.3795625 72.5782969,54.3205625 C74.4533906,54.2829961 76.3061289,54.5872148 78.0620703,55.2369063 C84.2930234,57.5418242 98.6885625,65.1295469 108.708191,88.031918 C108.708191,80.2432266 105.387828,57.8441992 93.2264531,40.1928281 Z M21.5626562,3.83384766 C23.2001367,4.55567578 27.2305742,8.50452734 31.7687344,13.4840352 C33.508082,15.3925469 34.4511602,17.7354922 34.6343828,20.1201523 C34.7463906,21.575332 34.0068164,22.9431641 32.7537578,23.6914961 C27.3838359,26.8975469 22.8436016,31.0031172 19.0258867,35.6171016 C18.0927187,17.1625469 19.945918,5.77716016 21.5626562,3.83384766 Z M77.0127461,13.4840352 C81.5506758,8.50406641 85.5813437,4.55567578 87.2188242,3.83384766 C88.8355625,5.77716016 90.6885312,17.1625469 89.7553633,35.6171016 C85.9376484,31.0028867 81.3971836,26.8977773 76.0274922,23.6914961 C74.7744336,22.9431641 74.0350898,21.575332 74.1468672,20.1201523 C74.3303203,17.7359531 75.273168,15.3927773 77.0127461,13.4840352 Z" id="Shape" fill="#878791"></path>
            <g id="Group" transform="translate(31.804688, 57.847656)" fill="#121212">
                <circle id="Oval" cx="3.85597266" cy="3.96198828" r="3.74603906"></circle>
                <circle id="Oval" cx="41.3163633" cy="3.96198828" r="3.74603906"></circle>
                <path d="M30.0782461,41.0478672 C30.0782461,44.6685313 26.7240039,48.914457 22.586168,48.914457 C18.448332,48.914457 15.0940898,44.6683008 15.0940898,41.0478672 C15.0940898,37.4272031 18.448332,35.8033203 22.586168,35.8033203 C26.7237734,35.8033203 30.0782461,37.4272031 30.0782461,41.0478672 Z" id="Path"></path>
            </g>
        </g>
    </g>
</svg>